<svg xmlns="http://www.w3.org/2000/svg" xmlns:xlink="http://www.w3.org/1999/xlink" viewBox="0 0 290.944 335.147"><style><![CDATA[.F{fill:none}.G{stroke:#ff8c36}.H{stroke-miterlimit:1}.I{fill:#ffd44a}.J{stroke-width:1.333}.K{stroke-width:5.333}]]></style><path d="M145.42 104.555v63.265" class="F G H K"/><use xlink:href="#B" class="I"/><use xlink:href="#B" class="F G H J"/><use xlink:href="#C" class="I"/><use xlink:href="#C" class="F G H J"/><use xlink:href="#B" x="-13.59" y="70.616" class="I"/><use xlink:href="#B" x="-13.59" y="70.616" class="F G H J"/><use xlink:href="#B" x="13.59" y="70.616" class="I"/><use xlink:href="#B" x="13.59" y="70.616" class="F G H J"/><use xlink:href="#C" y="47.078" class="I"/><use xlink:href="#C" y="47.078" class="F G H J"/><use xlink:href="#C" x="27.18" y="47.078" class="I"/><use xlink:href="#C" x="27.18" y="47.078" class="F G H J"/><use xlink:href="#C" x="-27.18" y="47.078" class="I"/><use xlink:href="#C" x="-27.18" y="47.078" class="F G H J"/><use xlink:href="#C" x="-13.59" y="23.54" class="I"/><use xlink:href="#C" x="-13.59" y="23.54" class="F G H J"/><use xlink:href="#B" x="-13.59" y="23.54" class="I"/><use xlink:href="#B" x="-13.59" y="23.54" class="F G H J"/><use xlink:href="#B" x="-27.18" y="47.078" class="I"/><use xlink:href="#B" x="-27.18" y="47.078" class="F G H J"/><use xlink:href="#C" x="13.59" y="23.54" class="I"/><use xlink:href="#C" x="13.59" y="23.54" class="F G H J"/><use xlink:href="#B" y="47.078" class="I"/><use xlink:href="#B" y="47.078" class="F G H J"/><use xlink:href="#C" x="-13.59" y="70.616" class="I"/><use xlink:href="#C" x="-13.59" y="70.616" class="F G H J"/><use xlink:href="#C" x="13.59" y="70.616" class="I"/><use xlink:href="#C" x="13.59" y="70.616" class="F G H J"/><use xlink:href="#B" y="94.155" class="I"/><use xlink:href="#B" y="94.155" class="F G H J"/><use xlink:href="#B" x="13.59" y="23.54" class="I"/><use xlink:href="#B" x="13.59" y="23.54" class="F G H J"/><use xlink:href="#D" class="I"/><g class="F G H"><use xlink:href="#D" class="J"/><path d="M145.523 230.59v-63.265" class="K"/></g><use xlink:href="#C" y="290.807" class="I"/><use xlink:href="#C" y="290.807" class="F G H J"/><use xlink:href="#B" y="290.807" class="I"/><use xlink:href="#B" y="290.807" class="F G H J"/><use xlink:href="#C" x="13.59" y="220.19" class="I"/><use xlink:href="#C" x="13.59" y="220.19" class="F G H J"/><use xlink:href="#C" x="-13.59" y="220.19" class="I"/><use xlink:href="#C" x="-13.59" y="220.19" class="F G H J"/><use xlink:href="#B" y="243.73" class="I"/><use xlink:href="#B" y="243.73" class="F G H J"/><use xlink:href="#B" x="-27.18" y="243.73" class="I"/><use xlink:href="#B" x="-27.18" y="243.73" class="F G H J"/><use xlink:href="#B" x="27.18" y="243.73" class="I"/><use xlink:href="#B" x="27.18" y="243.73" class="F G H J"/><use xlink:href="#B" x="13.59" y="267.268" class="I"/><use xlink:href="#B" x="13.59" y="267.268" class="F G H J"/><use xlink:href="#C" x="13.59" y="267.268" class="I"/><use xlink:href="#C" x="13.59" y="267.268" class="F G H J"/><use xlink:href="#C" x="27.18" y="243.73" class="I"/><use xlink:href="#C" x="27.18" y="243.73" class="F G H J"/><use xlink:href="#B" x="-13.59" y="267.268" class="I"/><use xlink:href="#B" x="-13.59" y="267.268" class="F G H J"/><use xlink:href="#C" y="243.73" class="I"/><use xlink:href="#C" y="243.73" class="F G H J"/><use xlink:href="#B" x="13.59" y="220.19" class="I"/><use xlink:href="#B" x="13.59" y="220.19" class="F G H J"/><use xlink:href="#B" x="-13.59" y="220.19" class="I"/><use xlink:href="#B" x="-13.59" y="220.19" class="F G H J"/><use xlink:href="#C" y="196.652" class="I"/><use xlink:href="#C" y="196.652" class="F G H J"/><use xlink:href="#C" x="-13.59" y="267.268" class="I"/><use xlink:href="#C" x="-13.59" y="267.268" class="F G H J"/><use xlink:href="#C" x="-27.18" y="243.73" class="I"/><g class="F G H"><use xlink:href="#C" x="-27.18" y="243.73" class="J"/><path d="M200.032 136.04l-54.8 31.614" class="K"/></g><use xlink:href="#E" class="I"/><use xlink:href="#E" class="F G H J"/><use xlink:href="#F" class="I"/><use xlink:href="#F" class="F G H J"/><use xlink:href="#E" x="-40.778" y="23.524" class="I"/><use xlink:href="#E" x="-40.778" y="23.524" class="F G H J"/><use xlink:href="#E" x="-67.958" y="23.514" class="I"/><use xlink:href="#E" x="-67.958" y="23.514" class="F G H J"/><use xlink:href="#E" x="-54.376" y="47.058" class="I"/><use xlink:href="#E" x="-54.376" y="47.058" class="F G H J"/><use xlink:href="#F" x="-40.777" y="23.525" class="I"/><use xlink:href="#F" x="-40.777" y="23.525" class="F G H J"/><use xlink:href="#F" x="-27.195" y="47.068" class="I"/><use xlink:href="#F" x="-27.195" y="47.068" class="F G H J"/><use xlink:href="#F" x="-54.36" y="-0.018" class="I"/><use xlink:href="#F" x="-54.36" y="-0.018" class="F G H J"/><use xlink:href="#F" x="-27.18" y="-0.01" class="I"/><use xlink:href="#F" x="-27.18" y="-0.01" class="F G H J"/><use xlink:href="#E" x="-27.18" y="-0.01" class="I"/><use xlink:href="#E" x="-27.18" y="-0.01" class="F G H J"/><use xlink:href="#E" x="-54.36" y="-0.02" class="I"/><use xlink:href="#E" x="-54.36" y="-0.02" class="F G H J"/><use xlink:href="#F" x="-13.597" y="23.534" class="I"/><use xlink:href="#F" x="-13.597" y="23.534" class="F G H J"/><use xlink:href="#G" class="I"/><use xlink:href="#G" class="F G H J"/><use xlink:href="#F" x="-67.957" y="23.516" class="I"/><use xlink:href="#F" x="-67.957" y="23.516" class="F G H J"/><use xlink:href="#H" class="I"/><use xlink:href="#H" class="F G H J"/><use xlink:href="#E" x="-81.556" y="47.048" class="I"/><use xlink:href="#E" x="-81.556" y="47.048" class="F G H J"/><use xlink:href="#E" x="-13.598" y="23.533" class="I"/><use xlink:href="#E" x="-13.598" y="23.533" class="F G H J"/><use xlink:href="#E" x="-27.196" y="47.067" class="I"/><g class="F G H"><use xlink:href="#E" x="-27.196" y="47.067" class="J"/><path d="M90.912 199.108l54.8-31.614" class="K"/></g><use xlink:href="#F" x="-251.894" y="145.318" class="I"/><use xlink:href="#F" x="-251.894" y="145.318" class="F G H J"/><use xlink:href="#E" x="-251.895" y="145.317" class="I"/><use xlink:href="#E" x="-251.895" y="145.317" class="F G H J"/><use xlink:href="#H" x="-129.561" y="74.743" class="I"/><use xlink:href="#H" x="-129.561" y="74.743" class="F G H J"/><use xlink:href="#F" x="-197.518" y="98.26" class="I"/><use xlink:href="#F" x="-197.518" y="98.26" class="F G H J"/><use xlink:href="#J" class="I"/><use xlink:href="#J" class="F G H J"/><use xlink:href="#G" x="-183.92" y="74.726" class="I"/><use xlink:href="#G" x="-183.92" y="74.726" class="F G H J"/><use xlink:href="#E" x="-197.535" y="145.335" class="I"/><use xlink:href="#E" x="-197.535" y="145.335" class="F G H J"/><use xlink:href="#E" x="-224.715" y="145.326" class="I"/><use xlink:href="#E" x="-224.715" y="145.326" class="F G H J"/><use xlink:href="#F" x="-224.714" y="145.327" class="I"/><use xlink:href="#F" x="-224.714" y="145.327" class="F G H J"/><use xlink:href="#F" x="-197.534" y="145.337" class="I"/><use xlink:href="#F" x="-197.534" y="145.337" class="F G H J"/><use xlink:href="#E" x="-238.298" y="121.783" class="I"/><use xlink:href="#E" x="-238.298" y="121.783" class="F G H J"/><use xlink:href="#I" class="I"/><use xlink:href="#I" class="F G H J"/><use xlink:href="#K" class="I"/><use xlink:href="#K" class="F G H J"/><use xlink:href="#E" x="-197.518" y="98.258" class="I"/><use xlink:href="#E" x="-197.518" y="98.258" class="F G H J"/><use xlink:href="#F" x="-170.338" y="98.27" class="I"/><use xlink:href="#F" x="-170.338" y="98.27" class="F G H J"/><use xlink:href="#L" class="I"/><use xlink:href="#L" class="F G H J"/><use xlink:href="#H" x="-170.323" y="51.19" class="I"/><g class="F G H"><use xlink:href="#H" x="-170.323" y="51.19" class="J"/><path d="M200.05 199.075l-54.768-31.67" class="K"/></g><use xlink:href="#M" class="I"/><use xlink:href="#M" class="F G H J"/><use xlink:href="#N" class="I"/><use xlink:href="#N" class="F G H J"/><use xlink:href="#M" x="-54.329" y="-47.114" class="I"/><use xlink:href="#M" x="-54.329" y="-47.114" class="F G H J"/><use xlink:href="#M" x="-67.934" y="-23.584" class="I"/><use xlink:href="#M" x="-67.934" y="-23.584" class="F G H J"/><use xlink:href="#N" x="-40.754" y="-23.566" class="I"/><use xlink:href="#N" x="-40.754" y="-23.566" class="F G H J"/><use xlink:href="#N" x="-54.36" y="-0.038" class="I"/><use xlink:href="#N" x="-54.36" y="-0.038" class="F G H J"/><use xlink:href="#N" x="-27.148" y="-47.096" class="I"/><use xlink:href="#N" x="-27.148" y="-47.096" class="F G H J"/><use xlink:href="#N" x="-13.574" y="-23.548" class="I"/><use xlink:href="#N" x="-13.574" y="-23.548" class="F G H J"/><use xlink:href="#M" x="-13.574" y="-23.547" class="I"/><use xlink:href="#M" x="-13.574" y="-23.547" class="F G H J"/><use xlink:href="#M" x="-27.149" y="-47.095" class="I"/><use xlink:href="#M" x="-27.149" y="-47.095" class="F G H J"/><use xlink:href="#N" x="-27.18" y="-0.018" class="I"/><use xlink:href="#N" x="-27.18" y="-0.018" class="F G H J"/><use xlink:href="#M" x="-40.754" y="-23.566" class="I"/><use xlink:href="#M" x="-40.754" y="-23.566" class="F G H J"/><use xlink:href="#N" x="-54.328" y="-47.114" class="I"/><use xlink:href="#N" x="-54.328" y="-47.114" class="F G H J"/><use xlink:href="#N" x="-67.935" y="-23.585" class="I"/><use xlink:href="#N" x="-67.935" y="-23.585" class="F G H J"/><use xlink:href="#M" x="-81.509" y="-47.122" class="I"/><use xlink:href="#M" x="-81.509" y="-47.122" class="F G H J"/><use xlink:href="#M" x="-27.18" y="-0.018" class="I"/><use xlink:href="#M" x="-27.18" y="-0.018" class="F G H J"/><use xlink:href="#M" x="-54.36" y="-0.036" class="I"/><g class="F G H"><use xlink:href="#M" x="-54.36" y="-0.036" class="J"/><path d="M90.893 136.072l54.768 31.67" class="K"/></g><use xlink:href="#O" class="I"/><use xlink:href="#O" class="F G H J"/><use xlink:href="#P" class="I"/><use xlink:href="#P" class="F G H J"/><use xlink:href="#N" x="-197.418" y="-98.46" class="I"/><use xlink:href="#N" x="-197.418" y="-98.46" class="F G H J"/><use xlink:href="#N" x="-183.813" y="-121.988" class="I"/><use xlink:href="#N" x="-183.813" y="-121.988" class="F G H J"/><use xlink:href="#M" x="-210.994" y="-122.007" class="I"/><use xlink:href="#M" x="-210.994" y="-122.007" class="F G H J"/><use xlink:href="#Q" class="I"/><use xlink:href="#Q" class="F G H J"/><use xlink:href="#M" x="-224.599" y="-98.478" class="I"/><use xlink:href="#M" x="-224.599" y="-98.478" class="F G H J"/><use xlink:href="#M" x="-238.174" y="-122.025" class="I"/><use xlink:href="#M" x="-238.174" y="-122.025" class="F G H J"/><use xlink:href="#N" x="-238.173" y="-122.026" class="I"/><use xlink:href="#N" x="-238.173" y="-122.026" class="F G H J"/><use xlink:href="#N" x="-224.598" y="-98.478" class="I"/><use xlink:href="#N" x="-224.598" y="-98.478" class="F G H J"/><use xlink:href="#M" x="-224.568" y="-145.555" class="I"/><use xlink:href="#M" x="-224.568" y="-145.555" class="F G H J"/><use xlink:href="#N" x="-210.993" y="-122.008" class="I"/><use xlink:href="#N" x="-210.993" y="-122.008" class="F G H J"/><use xlink:href="#M" x="-197.419" y="-98.459" class="I"/><use xlink:href="#M" x="-197.419" y="-98.459" class="F G H J"/><use xlink:href="#M" x="-183.814" y="-121.989" class="I"/><use xlink:href="#M" x="-183.814" y="-121.989" class="F G H J"/><use xlink:href="#N" x="-170.238" y="-98.441" class="I"/><use xlink:href="#N" x="-170.238" y="-98.441" class="F G H J"/><use xlink:href="#R" class="I"/><use xlink:href="#R" class="F G H J"/><use xlink:href="#N" x="-197.388" y="-145.538" class="I"/><use xlink:href="#N" x="-197.388" y="-145.538" class="F G H J"/><circle cx="145.485" cy="167.327" r="40.479" fill="#3f3025"/><path d="M145.487 188.196l4.684-26.345c4.465 0 5.873.5 6.077 2.488a10.531 10.531 0 0 0 4.506-3.385 33.103 33.103 0 0 0-11.819-2.855l-3.456 4.2h.008l-3.456-4.2a33.099 33.099 0 0 0-11.818 2.855 10.524 10.524 0 0 0 4.506 3.385c.205-2 1.6-2.488 6.046-2.5zm-.002-31.314a38.596 38.596 0 0 1 15.804 3.171 12.834 12.834 0 0 0 .938-1.937 44.593 44.593 0 0 0-33.484 0 16.197 16.197 0 0 0 .938 1.937 38.592 38.592 0 0 1 15.804-3.171z" fill="#fff"/><defs ><path id="B" d="M149.47 22.17h-13.6c-2.2 0-3.1-1.56-2-3.464l9.59-16.61c1.1-1.905 2.9-1.905 4 0l9.59 16.61c1.1 1.905.2 3.464-2 3.464z"/><path id="C" d="M141.473 22.17h13.6c2.2 0 3.1 1.56 2 3.464l-9.59 16.61c-1.1 1.905-2.9 1.905-4 0l-9.59-16.61c-1.1-1.905-.2-3.464 2-3.464z"/><path id="D" d="M176.65 69.248h-13.6c-2.2 0-3.1-1.56-2-3.464l9.59-16.61c1.1-1.905 2.9-1.905 4 0l9.59 16.612c1.1 1.905.2 3.464-2 3.464z"/><path id="E" d="M273.418 98.38l-6.79-11.772c-1.1-1.905-.2-3.464 2-3.463l19.18.006c2.2.001 3.1 1.56 2 3.464l-9.596 16.608c-1.1 1.905-2.9 1.904-4-.001z"/><path id="F" d="M269.42 91.45l6.79 11.772c1.1 1.905.2 3.464-2 3.463l-19.18-.006c-2.2-.001-3.1-1.56-2-3.464l9.596-16.608c1.1-1.905 2.9-1.904 4 .001z"/><path id="G" d="M232.64 121.904l-6.79-11.772c-1.1-1.905-.2-3.464 2-3.463l19.18.007c2.2.001 3.1 1.56 2 3.464l-9.596 16.608c-1.1 1.905-2.9 1.904-4-.001z"/><path id="H" d="M215.045 138.51l6.79 11.772c1.1 1.905.2 3.464-2 3.463l-19.18-.007c-2.2-.001-3.1-1.56-2-3.464l9.596-16.608c1.1-1.905 2.9-1.904 4 .001z"/><path id="I" d="M58.304 213.243l6.79 11.772c1.1 1.905.2 3.464-2 3.463l-19.18-.006c-2.2-.001-3.1-1.56-2-3.464L51.51 208.4c1.1-1.905 2.9-1.904 4 .001z"/><path id="J" d="M62.3 220.172L55.5 208.4c-1.1-1.905-.2-3.464 2-3.463l19.18.006c2.2.001 3.1 1.56 2 3.464l-9.596 16.608c-1.1 1.905-2.9 1.904-4-.001z"/><path id="K" d="M89.48 220.18L82.7 208.41c-1.1-1.905-.2-3.464 2-3.463l19.18.006c2.2.001 3.1 1.56 2 3.464l-9.596 16.608c-1.1 1.905-2.9 1.904-4-.001z"/><path id="L" d="M31.124 213.234l6.79 11.772c1.1 1.905.2 3.464-2 3.463l-19.18-.006c-2.2-.001-3.1-1.56-2-3.464L24.33 208.4c1.1-1.905 2.9-1.904 4 .001z"/><path id="M" d="M269.344 243.822l6.803-11.765c1.1-1.904 2.9-1.903 4 .003l9.58 16.618c1.1 1.906.198 3.464-2.002 3.462l-19.18-.013c-2.2-.001-3.098-1.56-1.997-3.465z"/><path id="N" d="M273.348 236.898l-6.803 11.765c-1.1 1.904-2.9 1.903-4-.003l-9.58-16.618c-1.1-1.906-.198-3.464 2.002-3.462l19.18.013c2.2.001 3.098 1.56 1.997 3.465z"/><path id="O" d="M21.6 91.324l-6.803 11.765c-1.1 1.904-2.9 1.903-4-.003L1.22 86.468c-1.1-1.906-.198-3.464 2.002-3.462l19.18.013c2.2.001 3.098 1.56 1.997 3.465z"/><path id="P" d="M17.596 98.25L24.4 86.484c1.1-1.904 2.9-1.903 4 .003l9.58 16.618c1.1 1.906.198 3.464-2.002 3.462l-19.18-.013c-2.2-.001-3.098-1.56-1.997-3.465z"/><path id="Q" d="M71.957 98.286L78.76 86.52c1.1-1.904 2.9-1.903 4 .003l9.58 16.618c1.1 1.906.198 3.464-2.002 3.462l-19.18-.013c-2.2-.001-3.098-1.56-1.997-3.465z"/><path id="R" d="M48.78 91.343l-6.803 11.765c-1.1 1.904-2.9 1.903-4-.003L28.4 86.487c-1.1-1.906-.198-3.464 2.002-3.462l19.18.013c2.2.001 3.098 1.56 1.997 3.465z"/></defs></svg>