<?xml version="1.0" encoding="utf-8"?>
<!-- Generator: Adobe Illustrator 24.0.1, SVG Export Plug-In . SVG Version: 6.00 Build 0)  -->
<svg version="1.1" xmlns="http://www.w3.org/2000/svg" xmlns:xlink="http://www.w3.org/1999/xlink" x="0px" y="0px"
	 viewBox="0 0 439.7 795.7" enable-background="new 0 0 439.7 795.7" xml:space="preserve">
<g id="Layer_1">
	<g>
		<g>
			<line fill="none" stroke="#FF8C36" stroke-width="5.3325" stroke-miterlimit="1" x1="225.4" y1="283.2" x2="225.4" y2="346.4"/>
			<line fill="none" stroke="#FF8C36" stroke-width="5.3325" stroke-miterlimit="1" x1="225.5" y1="409.2" x2="225.5" y2="345.9"/>
			<line fill="none" stroke="#FF8C36" stroke-width="5.3325" stroke-miterlimit="1" x1="280" y1="314.6" x2="225.2" y2="346.3"/>
			<line fill="none" stroke="#FF8C36" stroke-width="5.3325" stroke-miterlimit="1" x1="170.9" y1="377.7" x2="225.7" y2="346.1"/>
			<line fill="none" stroke="#FF8C36" stroke-width="5.3325" stroke-miterlimit="1" x1="280" y1="377.7" x2="225.3" y2="346"/>
			<line fill="none" stroke="#FF8C36" stroke-width="5.3325" stroke-miterlimit="1" x1="170.9" y1="314.7" x2="225.6" y2="346.3"/>
		</g>
		<g>
			<g>
				<g>
					<g>
						<path fill="#FFD44A" d="M229.4,200.8c-2.2,0-5.8,0-8,0h-5.6c-2.2,0-3.1-1.6-2-3.5l2.8-4.8c1.1-1.9,2.9-5,4-6.9l2.8-4.8
							c1.1-1.9,2.9-1.9,4,0l2.8,4.8c1.1,1.9,2.9,5,4,6.9l2.8,4.8c1.1,1.9,0.2,3.5-2,3.5H229.4z"/>
						<path fill="none" stroke="#FF8C36" stroke-width="1.3331" stroke-miterlimit="1" d="M229.4,200.8c-2.2,0-5.8,0-8,0h-5.6
							c-2.2,0-3.1-1.6-2-3.5l2.8-4.8c1.1-1.9,2.9-5,4-6.9l2.8-4.8c1.1-1.9,2.9-1.9,4,0l2.8,4.8c1.1,1.9,2.9,5,4,6.9l2.8,4.8
							c1.1,1.9,0.2,3.5-2,3.5H229.4z"/>
					</g>
					<g>
						<path fill="#FFD44A" d="M221.4,200.8c2.2,0,5.8,0,8,0h5.6c2.2,0,3.1,1.6,2,3.5l-2.8,4.8c-1.1,1.9-2.9,5-4,6.9l-2.8,4.8
							c-1.1,1.9-2.9,1.9-4,0l-2.8-4.8c-1.1-1.9-2.9-5-4-6.9l-2.8-4.8c-1.1-1.9-0.2-3.5,2-3.5H221.4z"/>
						<path fill="none" stroke="#FF8C36" stroke-width="1.3331" stroke-miterlimit="1" d="M221.4,200.8c2.2,0,5.8,0,8,0h5.6
							c2.2,0,3.1,1.6,2,3.5l-2.8,4.8c-1.1,1.9-2.9,5-4,6.9l-2.8,4.8c-1.1,1.9-2.9,1.9-4,0l-2.8-4.8c-1.1-1.9-2.9-5-4-6.9l-2.8-4.8
							c-1.1-1.9-0.2-3.5,2-3.5H221.4z"/>
					</g>
					<g>
						<path fill="#FFD44A" d="M229.4,247.9c-2.2,0-5.8,0-8,0h-5.6c-2.2,0-3.1-1.6-2-3.5l2.8-4.8c1.1-1.9,2.9-5,4-6.9l2.8-4.8
							c1.1-1.9,2.9-1.9,4,0l2.8,4.8c1.1,1.9,2.9,5,4,6.9l2.8,4.8c1.1,1.9,0.2,3.5-2,3.5H229.4z"/>
						<path fill="none" stroke="#FF8C36" stroke-width="1.3331" stroke-miterlimit="1" d="M229.4,247.9c-2.2,0-5.8,0-8,0h-5.6
							c-2.2,0-3.1-1.6-2-3.5l2.8-4.8c1.1-1.9,2.9-5,4-6.9l2.8-4.8c1.1-1.9,2.9-1.9,4,0l2.8,4.8c1.1,1.9,2.9,5,4,6.9l2.8,4.8
							c1.1,1.9,0.2,3.5-2,3.5H229.4z"/>
					</g>
					<g>
						<path fill="#FFD44A" d="M215.9,271.4c-2.2,0-5.8,0-8,0h-5.6c-2.2,0-3.1-1.6-2-3.5l2.8-4.8c1.1-1.9,2.9-5,4-6.9l2.8-4.8
							c1.1-1.9,2.9-1.9,4,0l2.8,4.8c1.1,1.9,2.9,5,4,6.9l2.8,4.8c1.1,1.9,0.2,3.5-2,3.5H215.9z"/>
						<path fill="none" stroke="#FF8C36" stroke-width="1.3331" stroke-miterlimit="1" d="M215.9,271.4c-2.2,0-5.8,0-8,0h-5.6
							c-2.2,0-3.1-1.6-2-3.5l2.8-4.8c1.1-1.9,2.9-5,4-6.9l2.8-4.8c1.1-1.9,2.9-1.9,4,0l2.8,4.8c1.1,1.9,2.9,5,4,6.9l2.8,4.8
							c1.1,1.9,0.2,3.5-2,3.5H215.9z"/>
					</g>
					<g>
						<path fill="#FFD44A" d="M243,271.4c-2.2,0-5.8,0-8,0h-5.6c-2.2,0-3.1-1.6-2-3.5l2.8-4.8c1.1-1.9,2.9-5,4-6.9l2.8-4.8
							c1.1-1.9,2.9-1.9,4,0l2.8,4.8c1.1,1.9,2.9,5,4,6.9l2.8,4.8c1.1,1.9,0.2,3.5-2,3.5H243z"/>
						<path fill="none" stroke="#FF8C36" stroke-width="1.3331" stroke-miterlimit="1" d="M243,271.4c-2.2,0-5.8,0-8,0h-5.6
							c-2.2,0-3.1-1.6-2-3.5l2.8-4.8c1.1-1.9,2.9-5,4-6.9l2.8-4.8c1.1-1.9,2.9-1.9,4,0l2.8,4.8c1.1,1.9,2.9,5,4,6.9l2.8,4.8
							c1.1,1.9,0.2,3.5-2,3.5H243z"/>
					</g>
					<g>
						<path fill="#FFD44A" d="M221.4,247.9c2.2,0,5.8,0,8,0h5.6c2.2,0,3.1,1.6,2,3.5l-2.8,4.8c-1.1,1.9-2.9,5-4,6.9l-2.8,4.8
							c-1.1,1.9-2.9,1.9-4,0l-2.8-4.8c-1.1-1.9-2.9-5-4-6.9l-2.8-4.8c-1.1-1.9-0.2-3.5,2-3.5H221.4z"/>
						<path fill="none" stroke="#FF8C36" stroke-width="1.3331" stroke-miterlimit="1" d="M221.4,247.9c2.2,0,5.8,0,8,0h5.6
							c2.2,0,3.1,1.6,2,3.5l-2.8,4.8c-1.1,1.9-2.9,5-4,6.9l-2.8,4.8c-1.1,1.9-2.9,1.9-4,0l-2.8-4.8c-1.1-1.9-2.9-5-4-6.9l-2.8-4.8
							c-1.1-1.9-0.2-3.5,2-3.5H221.4z"/>
					</g>
					<g>
						<path fill="#FFD44A" d="M248.6,247.9c2.2,0,5.8,0,8,0h5.6c2.2,0,3.1,1.6,2,3.5l-2.8,4.8c-1.1,1.9-2.9,5-4,6.9l-2.8,4.8
							c-1.1,1.9-2.9,1.9-4,0l-2.8-4.8c-1.1-1.9-2.9-5-4-6.9l-2.8-4.8c-1.1-1.9-0.2-3.5,2-3.5H248.6z"/>
						<path fill="none" stroke="#FF8C36" stroke-width="1.3331" stroke-miterlimit="1" d="M248.6,247.9c2.2,0,5.8,0,8,0h5.6
							c2.2,0,3.1,1.6,2,3.5l-2.8,4.8c-1.1,1.9-2.9,5-4,6.9l-2.8,4.8c-1.1,1.9-2.9,1.9-4,0l-2.8-4.8c-1.1-1.9-2.9-5-4-6.9l-2.8-4.8
							c-1.1-1.9-0.2-3.5,2-3.5H248.6z"/>
					</g>
					<g>
						<path fill="#FFD44A" d="M194.3,247.9c2.2,0,5.8,0,8,0h5.6c2.2,0,3.1,1.6,2,3.5l-2.8,4.8c-1.1,1.9-2.9,5-4,6.9l-2.8,4.8
							c-1.1,1.9-2.9,1.9-4,0l-2.8-4.8c-1.1-1.9-2.9-5-4-6.9l-2.8-4.8c-1.1-1.9-0.2-3.5,2-3.5H194.3z"/>
						<path fill="none" stroke="#FF8C36" stroke-width="1.3331" stroke-miterlimit="1" d="M194.3,247.9c2.2,0,5.8,0,8,0h5.6
							c2.2,0,3.1,1.6,2,3.5l-2.8,4.8c-1.1,1.9-2.9,5-4,6.9l-2.8,4.8c-1.1,1.9-2.9,1.9-4,0l-2.8-4.8c-1.1-1.9-2.9-5-4-6.9l-2.8-4.8
							c-1.1-1.9-0.2-3.5,2-3.5H194.3z"/>
					</g>
					<g>
						<path fill="#FFD44A" d="M207.9,224.3c2.2,0,5.8,0,8,0h5.6c2.2,0,3.1,1.6,2,3.5l-2.8,4.8c-1.1,1.9-2.9,5-4,6.9l-2.8,4.8
							c-1.1,1.9-2.9,1.9-4,0l-2.8-4.8c-1.1-1.9-2.9-5-4-6.9l-2.8-4.8c-1.1-1.9-0.2-3.5,2-3.5H207.9z"/>
						<path fill="none" stroke="#FF8C36" stroke-width="1.3331" stroke-miterlimit="1" d="M207.9,224.3c2.2,0,5.8,0,8,0h5.6
							c2.2,0,3.1,1.6,2,3.5l-2.8,4.8c-1.1,1.9-2.9,5-4,6.9l-2.8,4.8c-1.1,1.9-2.9,1.9-4,0l-2.8-4.8c-1.1-1.9-2.9-5-4-6.9l-2.8-4.8
							c-1.1-1.9-0.2-3.5,2-3.5H207.9z"/>
					</g>
					<g>
						<path fill="#FFD44A" d="M215.9,224.3c-2.2,0-5.8,0-8,0h-5.6c-2.2,0-3.1-1.6-2-3.5l2.8-4.8c1.1-1.9,2.9-5,4-6.9l2.8-4.8
							c1.1-1.9,2.9-1.9,4,0l2.8,4.8c1.1,1.9,2.9,5,4,6.9l2.8,4.8c1.1,1.9,0.2,3.5-2,3.5H215.9z"/>
						<path fill="none" stroke="#FF8C36" stroke-width="1.3331" stroke-miterlimit="1" d="M215.9,224.3c-2.2,0-5.8,0-8,0h-5.6
							c-2.2,0-3.1-1.6-2-3.5l2.8-4.8c1.1-1.9,2.9-5,4-6.9l2.8-4.8c1.1-1.9,2.9-1.9,4,0l2.8,4.8c1.1,1.9,2.9,5,4,6.9l2.8,4.8
							c1.1,1.9,0.2,3.5-2,3.5H215.9z"/>
					</g>
					<g>
						<path fill="#FFD44A" d="M202.3,247.9c-2.2,0-5.8,0-8,0h-5.6c-2.2,0-3.1-1.6-2-3.5l2.8-4.8c1.1-1.9,2.9-5,4-6.9l2.8-4.8
							c1.1-1.9,2.9-1.9,4,0l2.8,4.8c1.1,1.9,2.9,5,4,6.9l2.8,4.8c1.1,1.9,0.2,3.5-2,3.5H202.3z"/>
						<path fill="none" stroke="#FF8C36" stroke-width="1.3331" stroke-miterlimit="1" d="M202.3,247.9c-2.2,0-5.8,0-8,0h-5.6
							c-2.2,0-3.1-1.6-2-3.5l2.8-4.8c1.1-1.9,2.9-5,4-6.9l2.8-4.8c1.1-1.9,2.9-1.9,4,0l2.8,4.8c1.1,1.9,2.9,5,4,6.9l2.8,4.8
							c1.1,1.9,0.2,3.5-2,3.5H202.3z"/>
					</g>
					<g>
						<path fill="#FFD44A" d="M235,224.3c2.2,0,5.8,0,8,0h5.6c2.2,0,3.1,1.6,2,3.5l-2.8,4.8c-1.1,1.9-2.9,5-4,6.9l-2.8,4.8
							c-1.1,1.9-2.9,1.9-4,0l-2.8-4.8c-1.1-1.9-2.9-5-4-6.9l-2.8-4.8c-1.1-1.9-0.2-3.5,2-3.5H235z"/>
						<path fill="none" stroke="#FF8C36" stroke-width="1.3331" stroke-miterlimit="1" d="M235,224.3c2.2,0,5.8,0,8,0h5.6
							c2.2,0,3.1,1.6,2,3.5l-2.8,4.8c-1.1,1.9-2.9,5-4,6.9l-2.8,4.8c-1.1,1.9-2.9,1.9-4,0l-2.8-4.8c-1.1-1.9-2.9-5-4-6.9l-2.8-4.8
							c-1.1-1.9-0.2-3.5,2-3.5H235z"/>
					</g>
					<g>
						<path fill="#FFD44A" d="M229.4,247.9c-2.2,0-5.8,0-8,0h-5.6c-2.2,0-3.1-1.6-2-3.5l2.8-4.8c1.1-1.9,2.9-5,4-6.9l2.8-4.8
							c1.1-1.9,2.9-1.9,4,0l2.8,4.8c1.1,1.9,2.9,5,4,6.9l2.8,4.8c1.1,1.9,0.2,3.5-2,3.5H229.4z"/>
						<path fill="none" stroke="#FF8C36" stroke-width="1.3331" stroke-miterlimit="1" d="M229.4,247.9c-2.2,0-5.8,0-8,0h-5.6
							c-2.2,0-3.1-1.6-2-3.5l2.8-4.8c1.1-1.9,2.9-5,4-6.9l2.8-4.8c1.1-1.9,2.9-1.9,4,0l2.8,4.8c1.1,1.9,2.9,5,4,6.9l2.8,4.8
							c1.1,1.9,0.2,3.5-2,3.5H229.4z"/>
					</g>
					<g>
						<path fill="#FFD44A" d="M229.4,294.9c-2.2,0-5.8,0-8,0h-5.6c-2.2,0-3.1-1.6-2-3.5l2.8-4.8c1.1-1.9,2.9-5,4-6.9l2.8-4.8
							c1.1-1.9,2.9-1.9,4,0l2.8,4.8c1.1,1.9,2.9,5,4,6.9l2.8,4.8c1.1,1.9,0.2,3.5-2,3.5H229.4z"/>
						<path fill="none" stroke="#FF8C36" stroke-width="1.3331" stroke-miterlimit="1" d="M229.4,294.9c-2.2,0-5.8,0-8,0h-5.6
							c-2.2,0-3.1-1.6-2-3.5l2.8-4.8c1.1-1.9,2.9-5,4-6.9l2.8-4.8c1.1-1.9,2.9-1.9,4,0l2.8,4.8c1.1,1.9,2.9,5,4,6.9l2.8,4.8
							c1.1,1.9,0.2,3.5-2,3.5H229.4z"/>
					</g>
					<g>
						<path fill="#FFD44A" d="M207.9,271.4c2.2,0,5.8,0,8,0h5.6c2.2,0,3.1,1.6,2,3.5l-2.8,4.8c-1.1,1.9-2.9,5-4,6.9l-2.8,4.8
							c-1.1,1.9-2.9,1.9-4,0l-2.8-4.8c-1.1-1.9-2.9-5-4-6.9l-2.8-4.8c-1.1-1.9-0.2-3.5,2-3.5H207.9z"/>
						<path fill="none" stroke="#FF8C36" stroke-width="1.3331" stroke-miterlimit="1" d="M207.9,271.4c2.2,0,5.8,0,8,0h5.6
							c2.2,0,3.1,1.6,2,3.5l-2.8,4.8c-1.1,1.9-2.9,5-4,6.9l-2.8,4.8c-1.1,1.9-2.9,1.9-4,0l-2.8-4.8c-1.1-1.9-2.9-5-4-6.9l-2.8-4.8
							c-1.1-1.9-0.2-3.5,2-3.5H207.9z"/>
					</g>
					<g>
						<path fill="#FFD44A" d="M235,271.4c2.2,0,5.8,0,8,0h5.6c2.2,0,3.1,1.6,2,3.5l-2.8,4.8c-1.1,1.9-2.9,5-4,6.9l-2.8,4.8
							c-1.1,1.9-2.9,1.9-4,0l-2.8-4.8c-1.1-1.9-2.9-5-4-6.9l-2.8-4.8c-1.1-1.9-0.2-3.5,2-3.5H235z"/>
						<path fill="none" stroke="#FF8C36" stroke-width="1.3331" stroke-miterlimit="1" d="M235,271.4c2.2,0,5.8,0,8,0h5.6
							c2.2,0,3.1,1.6,2,3.5l-2.8,4.8c-1.1,1.9-2.9,5-4,6.9l-2.8,4.8c-1.1,1.9-2.9,1.9-4,0l-2.8-4.8c-1.1-1.9-2.9-5-4-6.9l-2.8-4.8
							c-1.1-1.9-0.2-3.5,2-3.5H235z"/>
					</g>
					<g>
						<path fill="#FFD44A" d="M229.4,294.9c-2.2,0-5.8,0-8,0h-5.6c-2.2,0-3.1-1.6-2-3.5l2.8-4.8c1.1-1.9,2.9-5,4-6.9l2.8-4.8
							c1.1-1.9,2.9-1.9,4,0l2.8,4.8c1.1,1.9,2.9,5,4,6.9l2.8,4.8c1.1,1.9,0.2,3.5-2,3.5H229.4z"/>
						<path fill="none" stroke="#FF8C36" stroke-width="1.3331" stroke-miterlimit="1" d="M229.4,294.9c-2.2,0-5.8,0-8,0h-5.6
							c-2.2,0-3.1-1.6-2-3.5l2.8-4.8c1.1-1.9,2.9-5,4-6.9l2.8-4.8c1.1-1.9,2.9-1.9,4,0l2.8,4.8c1.1,1.9,2.9,5,4,6.9l2.8,4.8
							c1.1,1.9,0.2,3.5-2,3.5H229.4z"/>
					</g>
					<g>
						<path fill="#FFD44A" d="M243,224.3c-2.2,0-5.8,0-8,0h-5.6c-2.2,0-3.1-1.6-2-3.5l2.8-4.8c1.1-1.9,2.9-5,4-6.9l2.8-4.8
							c1.1-1.9,2.9-1.9,4,0l2.8,4.8c1.1,1.9,2.9,5,4,6.9l2.8,4.8c1.1,1.9,0.2,3.5-2,3.5H243z"/>
						<path fill="none" stroke="#FF8C36" stroke-width="1.3331" stroke-miterlimit="1" d="M243,224.3c-2.2,0-5.8,0-8,0h-5.6
							c-2.2,0-3.1-1.6-2-3.5l2.8-4.8c1.1-1.9,2.9-5,4-6.9l2.8-4.8c1.1-1.9,2.9-1.9,4,0l2.8,4.8c1.1,1.9,2.9,5,4,6.9l2.8,4.8
							c1.1,1.9,0.2,3.5-2,3.5H243z"/>
					</g>
					<g>
						<path fill="#FFD44A" d="M256.6,247.9c-2.2,0-5.8,0-8,0H243c-2.2,0-3.1-1.6-2-3.5l2.8-4.8c1.1-1.9,2.9-5,4-6.9l2.8-4.8
							c1.1-1.9,2.9-1.9,4,0l2.8,4.8c1.1,1.9,2.9,5,4,6.9l2.8,4.8c1.1,1.9,0.2,3.5-2,3.5H256.6z"/>
						<path fill="none" stroke="#FF8C36" stroke-width="1.3331" stroke-miterlimit="1" d="M256.6,247.9c-2.2,0-5.8,0-8,0H243
							c-2.2,0-3.1-1.6-2-3.5l2.8-4.8c1.1-1.9,2.9-5,4-6.9l2.8-4.8c1.1-1.9,2.9-1.9,4,0l2.8,4.8c1.1,1.9,2.9,5,4,6.9l2.8,4.8
							c1.1,1.9,0.2,3.5-2,3.5H256.6z"/>
					</g>
				</g>
			</g>
			<g>
				<g>
					<g>
						<path fill="#FFD44A" d="M221.4,491.6c2.2,0,5.8,0,8,0h5.6c2.2,0,3.1,1.6,2,3.5l-2.8,4.8c-1.1,1.9-2.9,5-4,6.9l-2.8,4.8
							c-1.1,1.9-2.9,1.9-4,0l-2.8-4.8c-1.1-1.9-2.9-5-4-6.9l-2.8-4.8c-1.1-1.9-0.2-3.5,2-3.5H221.4z"/>
						<path fill="none" stroke="#FF8C36" stroke-width="1.3331" stroke-miterlimit="1" d="M221.4,491.6c2.2,0,5.8,0,8,0h5.6
							c2.2,0,3.1,1.6,2,3.5l-2.8,4.8c-1.1,1.9-2.9,5-4,6.9l-2.8,4.8c-1.1,1.9-2.9,1.9-4,0l-2.8-4.8c-1.1-1.9-2.9-5-4-6.9l-2.8-4.8
							c-1.1-1.9-0.2-3.5,2-3.5H221.4z"/>
					</g>
					<g>
						<path fill="#FFD44A" d="M229.4,491.6c-2.2,0-5.8,0-8,0h-5.6c-2.2,0-3.1-1.6-2-3.5l2.8-4.8c1.1-1.9,2.9-5,4-6.9l2.8-4.8
							c1.1-1.9,2.9-1.9,4,0l2.8,4.8c1.1,1.9,2.9,5,4,6.9l2.8,4.8c1.1,1.9,0.2,3.5-2,3.5H229.4z"/>
						<path fill="none" stroke="#FF8C36" stroke-width="1.3331" stroke-miterlimit="1" d="M229.4,491.6c-2.2,0-5.8,0-8,0h-5.6
							c-2.2,0-3.1-1.6-2-3.5l2.8-4.8c1.1-1.9,2.9-5,4-6.9l2.8-4.8c1.1-1.9,2.9-1.9,4,0l2.8,4.8c1.1,1.9,2.9,5,4,6.9l2.8,4.8
							c1.1,1.9,0.2,3.5-2,3.5H229.4z"/>
					</g>
					<g>
						<path fill="#FFD44A" d="M221.4,444.5c2.2,0,5.8,0,8,0h5.6c2.2,0,3.1,1.6,2,3.5l-2.8,4.8c-1.1,1.9-2.9,5-4,6.9l-2.8,4.8
							c-1.1,1.9-2.9,1.9-4,0l-2.8-4.8c-1.1-1.9-2.9-5-4-6.9l-2.8-4.8c-1.1-1.9-0.2-3.5,2-3.5H221.4z"/>
						<path fill="none" stroke="#FF8C36" stroke-width="1.3331" stroke-miterlimit="1" d="M221.4,444.5c2.2,0,5.8,0,8,0h5.6
							c2.2,0,3.1,1.6,2,3.5l-2.8,4.8c-1.1,1.9-2.9,5-4,6.9l-2.8,4.8c-1.1,1.9-2.9,1.9-4,0l-2.8-4.8c-1.1-1.9-2.9-5-4-6.9l-2.8-4.8
							c-1.1-1.9-0.2-3.5,2-3.5H221.4z"/>
					</g>
					<g>
						<path fill="#FFD44A" d="M235,421c2.2,0,5.8,0,8,0h5.6c2.2,0,3.1,1.6,2,3.5l-2.8,4.8c-1.1,1.9-2.9,5-4,6.9L241,441
							c-1.1,1.9-2.9,1.9-4,0l-2.8-4.8c-1.1-1.9-2.9-5-4-6.9l-2.8-4.8c-1.1-1.9-0.2-3.5,2-3.5H235z"/>
						<path fill="none" stroke="#FF8C36" stroke-width="1.3331" stroke-miterlimit="1" d="M235,421c2.2,0,5.8,0,8,0h5.6
							c2.2,0,3.1,1.6,2,3.5l-2.8,4.8c-1.1,1.9-2.9,5-4,6.9L241,441c-1.1,1.9-2.9,1.9-4,0l-2.8-4.8c-1.1-1.9-2.9-5-4-6.9l-2.8-4.8
							c-1.1-1.9-0.2-3.5,2-3.5H235z"/>
					</g>
					<g>
						<path fill="#FFD44A" d="M207.9,421c2.2,0,5.8,0,8,0h5.6c2.2,0,3.1,1.6,2,3.5l-2.8,4.8c-1.1,1.9-2.9,5-4,6.9l-2.8,4.8
							c-1.1,1.9-2.9,1.9-4,0l-2.8-4.8c-1.1-1.9-2.9-5-4-6.9l-2.8-4.8c-1.1-1.9-0.2-3.5,2-3.5H207.9z"/>
						<path fill="none" stroke="#FF8C36" stroke-width="1.3331" stroke-miterlimit="1" d="M207.9,421c2.2,0,5.8,0,8,0h5.6
							c2.2,0,3.1,1.6,2,3.5l-2.8,4.8c-1.1,1.9-2.9,5-4,6.9l-2.8,4.8c-1.1,1.9-2.9,1.9-4,0l-2.8-4.8c-1.1-1.9-2.9-5-4-6.9l-2.8-4.8
							c-1.1-1.9-0.2-3.5,2-3.5H207.9z"/>
					</g>
					<g>
						<path fill="#FFD44A" d="M229.4,444.5c-2.2,0-5.8,0-8,0h-5.6c-2.2,0-3.1-1.6-2-3.5l2.8-4.8c1.1-1.9,2.9-5,4-6.9l2.8-4.8
							c1.1-1.9,2.9-1.9,4,0l2.8,4.8c1.1,1.9,2.9,5,4,6.9l2.8,4.8c1.1,1.9,0.2,3.5-2,3.5H229.4z"/>
						<path fill="none" stroke="#FF8C36" stroke-width="1.3331" stroke-miterlimit="1" d="M229.4,444.5c-2.2,0-5.8,0-8,0h-5.6
							c-2.2,0-3.1-1.6-2-3.5l2.8-4.8c1.1-1.9,2.9-5,4-6.9l2.8-4.8c1.1-1.9,2.9-1.9,4,0l2.8,4.8c1.1,1.9,2.9,5,4,6.9l2.8,4.8
							c1.1,1.9,0.2,3.5-2,3.5H229.4z"/>
					</g>
					<g>
						<path fill="#FFD44A" d="M202.3,444.5c-2.2,0-5.8,0-8,0h-5.6c-2.2,0-3.1-1.6-2-3.5l2.8-4.8c1.1-1.9,2.9-5,4-6.9l2.8-4.8
							c1.1-1.9,2.9-1.9,4,0l2.8,4.8c1.1,1.9,2.9,5,4,6.9l2.8,4.8c1.1,1.9,0.2,3.5-2,3.5H202.3z"/>
						<path fill="none" stroke="#FF8C36" stroke-width="1.3331" stroke-miterlimit="1" d="M202.3,444.5c-2.2,0-5.8,0-8,0h-5.6
							c-2.2,0-3.1-1.6-2-3.5l2.8-4.8c1.1-1.9,2.9-5,4-6.9l2.8-4.8c1.1-1.9,2.9-1.9,4,0l2.8,4.8c1.1,1.9,2.9,5,4,6.9l2.8,4.8
							c1.1,1.9,0.2,3.5-2,3.5H202.3z"/>
					</g>
					<g>
						<path fill="#FFD44A" d="M256.6,444.5c-2.2,0-5.8,0-8,0H243c-2.2,0-3.1-1.6-2-3.5l2.8-4.8c1.1-1.9,2.9-5,4-6.9l2.8-4.8
							c1.1-1.9,2.9-1.9,4,0l2.8,4.8c1.1,1.9,2.9,5,4,6.9l2.8,4.8c1.1,1.9,0.2,3.5-2,3.5H256.6z"/>
						<path fill="none" stroke="#FF8C36" stroke-width="1.3331" stroke-miterlimit="1" d="M256.6,444.5c-2.2,0-5.8,0-8,0H243
							c-2.2,0-3.1-1.6-2-3.5l2.8-4.8c1.1-1.9,2.9-5,4-6.9l2.8-4.8c1.1-1.9,2.9-1.9,4,0l2.8,4.8c1.1,1.9,2.9,5,4,6.9l2.8,4.8
							c1.1,1.9,0.2,3.5-2,3.5H256.6z"/>
					</g>
					<g>
						<path fill="#FFD44A" d="M243,468c-2.2,0-5.8,0-8,0h-5.6c-2.2,0-3.1-1.6-2-3.5l2.8-4.8c1.1-1.9,2.9-5,4-6.9l2.8-4.8
							c1.1-1.9,2.9-1.9,4,0l2.8,4.8c1.1,1.9,2.9,5,4,6.9l2.8,4.8c1.1,1.9,0.2,3.5-2,3.5H243z"/>
						<path fill="none" stroke="#FF8C36" stroke-width="1.3331" stroke-miterlimit="1" d="M243,468c-2.2,0-5.8,0-8,0h-5.6
							c-2.2,0-3.1-1.6-2-3.5l2.8-4.8c1.1-1.9,2.9-5,4-6.9l2.8-4.8c1.1-1.9,2.9-1.9,4,0l2.8,4.8c1.1,1.9,2.9,5,4,6.9l2.8,4.8
							c1.1,1.9,0.2,3.5-2,3.5H243z"/>
					</g>
					<g>
						<path fill="#FFD44A" d="M235,468c2.2,0,5.8,0,8,0h5.6c2.2,0,3.1,1.6,2,3.5l-2.8,4.8c-1.1,1.9-2.9,5-4,6.9l-2.8,4.8
							c-1.1,1.9-2.9,1.9-4,0l-2.8-4.8c-1.1-1.9-2.9-5-4-6.9l-2.8-4.8c-1.1-1.9-0.2-3.5,2-3.5H235z"/>
						<path fill="none" stroke="#FF8C36" stroke-width="1.3331" stroke-miterlimit="1" d="M235,468c2.2,0,5.8,0,8,0h5.6
							c2.2,0,3.1,1.6,2,3.5l-2.8,4.8c-1.1,1.9-2.9,5-4,6.9l-2.8,4.8c-1.1,1.9-2.9,1.9-4,0l-2.8-4.8c-1.1-1.9-2.9-5-4-6.9l-2.8-4.8
							c-1.1-1.9-0.2-3.5,2-3.5H235z"/>
					</g>
					<g>
						<path fill="#FFD44A" d="M248.6,444.5c2.2,0,5.8,0,8,0h5.6c2.2,0,3.1,1.6,2,3.5l-2.8,4.8c-1.1,1.9-2.9,5-4,6.9l-2.8,4.8
							c-1.1,1.9-2.9,1.9-4,0l-2.8-4.8c-1.1-1.9-2.9-5-4-6.9L241,448c-1.1-1.9-0.2-3.5,2-3.5H248.6z"/>
						<path fill="none" stroke="#FF8C36" stroke-width="1.3331" stroke-miterlimit="1" d="M248.6,444.5c2.2,0,5.8,0,8,0h5.6
							c2.2,0,3.1,1.6,2,3.5l-2.8,4.8c-1.1,1.9-2.9,5-4,6.9l-2.8,4.8c-1.1,1.9-2.9,1.9-4,0l-2.8-4.8c-1.1-1.9-2.9-5-4-6.9L241,448
							c-1.1-1.9-0.2-3.5,2-3.5H248.6z"/>
					</g>
					<g>
						<path fill="#FFD44A" d="M215.9,468c-2.2,0-5.8,0-8,0h-5.6c-2.2,0-3.1-1.6-2-3.5l2.8-4.8c1.1-1.9,2.9-5,4-6.9l2.8-4.8
							c1.1-1.9,2.9-1.9,4,0l2.8,4.8c1.1,1.9,2.9,5,4,6.9l2.8,4.8c1.1,1.9,0.2,3.5-2,3.5H215.9z"/>
						<path fill="none" stroke="#FF8C36" stroke-width="1.3331" stroke-miterlimit="1" d="M215.9,468c-2.2,0-5.8,0-8,0h-5.6
							c-2.2,0-3.1-1.6-2-3.5l2.8-4.8c1.1-1.9,2.9-5,4-6.9l2.8-4.8c1.1-1.9,2.9-1.9,4,0l2.8,4.8c1.1,1.9,2.9,5,4,6.9l2.8,4.8
							c1.1,1.9,0.2,3.5-2,3.5H215.9z"/>
					</g>
					<g>
						<path fill="#FFD44A" d="M221.4,444.5c2.2,0,5.8,0,8,0h5.6c2.2,0,3.1,1.6,2,3.5l-2.8,4.8c-1.1,1.9-2.9,5-4,6.9l-2.8,4.8
							c-1.1,1.9-2.9,1.9-4,0l-2.8-4.8c-1.1-1.9-2.9-5-4-6.9l-2.8-4.8c-1.1-1.9-0.2-3.5,2-3.5H221.4z"/>
						<path fill="none" stroke="#FF8C36" stroke-width="1.3331" stroke-miterlimit="1" d="M221.4,444.5c2.2,0,5.8,0,8,0h5.6
							c2.2,0,3.1,1.6,2,3.5l-2.8,4.8c-1.1,1.9-2.9,5-4,6.9l-2.8,4.8c-1.1,1.9-2.9,1.9-4,0l-2.8-4.8c-1.1-1.9-2.9-5-4-6.9l-2.8-4.8
							c-1.1-1.9-0.2-3.5,2-3.5H221.4z"/>
					</g>
					<g>
						<path fill="#FFD44A" d="M221.4,397.4c2.2,0,5.8,0,8,0h5.6c2.2,0,3.1,1.6,2,3.5l-2.8,4.8c-1.1,1.9-2.9,5-4,6.9l-2.8,4.8
							c-1.1,1.9-2.9,1.9-4,0l-2.8-4.8c-1.1-1.9-2.9-5-4-6.9l-2.8-4.8c-1.1-1.9-0.2-3.5,2-3.5H221.4z"/>
						<path fill="none" stroke="#FF8C36" stroke-width="1.3331" stroke-miterlimit="1" d="M221.4,397.4c2.2,0,5.8,0,8,0h5.6
							c2.2,0,3.1,1.6,2,3.5l-2.8,4.8c-1.1,1.9-2.9,5-4,6.9l-2.8,4.8c-1.1,1.9-2.9,1.9-4,0l-2.8-4.8c-1.1-1.9-2.9-5-4-6.9l-2.8-4.8
							c-1.1-1.9-0.2-3.5,2-3.5H221.4z"/>
					</g>
					<g>
						<path fill="#FFD44A" d="M243,421c-2.2,0-5.8,0-8,0h-5.6c-2.2,0-3.1-1.6-2-3.5l2.8-4.8c1.1-1.9,2.9-5,4-6.9l2.8-4.8
							c1.1-1.9,2.9-1.9,4,0l2.8,4.8c1.1,1.9,2.9,5,4,6.9l2.8,4.8c1.1,1.9,0.2,3.5-2,3.5H243z"/>
						<path fill="none" stroke="#FF8C36" stroke-width="1.3331" stroke-miterlimit="1" d="M243,421c-2.2,0-5.8,0-8,0h-5.6
							c-2.2,0-3.1-1.6-2-3.5l2.8-4.8c1.1-1.9,2.9-5,4-6.9l2.8-4.8c1.1-1.9,2.9-1.9,4,0l2.8,4.8c1.1,1.9,2.9,5,4,6.9l2.8,4.8
							c1.1,1.9,0.2,3.5-2,3.5H243z"/>
					</g>
					<g>
						<path fill="#FFD44A" d="M215.9,421c-2.2,0-5.8,0-8,0h-5.6c-2.2,0-3.1-1.6-2-3.5l2.8-4.8c1.1-1.9,2.9-5,4-6.9l2.8-4.8
							c1.1-1.9,2.9-1.9,4,0l2.8,4.8c1.1,1.9,2.9,5,4,6.9l2.8,4.8c1.1,1.9,0.2,3.5-2,3.5H215.9z"/>
						<path fill="none" stroke="#FF8C36" stroke-width="1.3331" stroke-miterlimit="1" d="M215.9,421c-2.2,0-5.8,0-8,0h-5.6
							c-2.2,0-3.1-1.6-2-3.5l2.8-4.8c1.1-1.9,2.9-5,4-6.9l2.8-4.8c1.1-1.9,2.9-1.9,4,0l2.8,4.8c1.1,1.9,2.9,5,4,6.9l2.8,4.8
							c1.1,1.9,0.2,3.5-2,3.5H215.9z"/>
					</g>
					<g>
						<path fill="#FFD44A" d="M221.4,397.4c2.2,0,5.8,0,8,0h5.6c2.2,0,3.1,1.6,2,3.5l-2.8,4.8c-1.1,1.9-2.9,5-4,6.9l-2.8,4.8
							c-1.1,1.9-2.9,1.9-4,0l-2.8-4.8c-1.1-1.9-2.9-5-4-6.9l-2.8-4.8c-1.1-1.9-0.2-3.5,2-3.5H221.4z"/>
						<path fill="none" stroke="#FF8C36" stroke-width="1.3331" stroke-miterlimit="1" d="M221.4,397.4c2.2,0,5.8,0,8,0h5.6
							c2.2,0,3.1,1.6,2,3.5l-2.8,4.8c-1.1,1.9-2.9,5-4,6.9l-2.8,4.8c-1.1,1.9-2.9,1.9-4,0l-2.8-4.8c-1.1-1.9-2.9-5-4-6.9l-2.8-4.8
							c-1.1-1.9-0.2-3.5,2-3.5H221.4z"/>
					</g>
					<g>
						<path fill="#FFD44A" d="M207.9,468c2.2,0,5.8,0,8,0h5.6c2.2,0,3.1,1.6,2,3.5l-2.8,4.8c-1.1,1.9-2.9,5-4,6.9l-2.8,4.8
							c-1.1,1.9-2.9,1.9-4,0l-2.8-4.8c-1.1-1.9-2.9-5-4-6.9l-2.8-4.8c-1.1-1.9-0.2-3.5,2-3.5H207.9z"/>
						<path fill="none" stroke="#FF8C36" stroke-width="1.3331" stroke-miterlimit="1" d="M207.9,468c2.2,0,5.8,0,8,0h5.6
							c2.2,0,3.1,1.6,2,3.5l-2.8,4.8c-1.1,1.9-2.9,5-4,6.9l-2.8,4.8c-1.1,1.9-2.9,1.9-4,0l-2.8-4.8c-1.1-1.9-2.9-5-4-6.9l-2.8-4.8
							c-1.1-1.9-0.2-3.5,2-3.5H207.9z"/>
					</g>
					<g>
						<path fill="#FFD44A" d="M194.3,444.5c2.2,0,5.8,0,8,0h5.6c2.2,0,3.1,1.6,2,3.5l-2.8,4.8c-1.1,1.9-2.9,5-4,6.9l-2.8,4.8
							c-1.1,1.9-2.9,1.9-4,0l-2.8-4.8c-1.1-1.9-2.9-5-4-6.9l-2.8-4.8c-1.1-1.9-0.2-3.5,2-3.5H194.3z"/>
						<path fill="none" stroke="#FF8C36" stroke-width="1.3331" stroke-miterlimit="1" d="M194.3,444.5c2.2,0,5.8,0,8,0h5.6
							c2.2,0,3.1,1.6,2,3.5l-2.8,4.8c-1.1,1.9-2.9,5-4,6.9l-2.8,4.8c-1.1,1.9-2.9,1.9-4,0l-2.8-4.8c-1.1-1.9-2.9-5-4-6.9l-2.8-4.8
							c-1.1-1.9-0.2-3.5,2-3.5H194.3z"/>
					</g>
				</g>
			</g>
			<g>
				<g>
					<g>
						<path fill="#FFD44A" d="M353.4,277c-1.1-1.9-2.9-5-4-6.9l-2.8-4.8c-1.1-1.9-0.2-3.5,2-3.5l5.6,0c2.2,0,5.8,0,8,0l5.6,0
							c2.2,0,3.1,1.6,2,3.5l-2.8,4.8c-1.1,1.9-2.9,5-4,6.9l-2.8,4.8c-1.1,1.9-2.9,1.9-4,0L353.4,277z"/>
						<path fill="none" stroke="#FF8C36" stroke-width="1.3331" stroke-miterlimit="1" d="M353.4,277c-1.1-1.9-2.9-5-4-6.9l-2.8-4.8
							c-1.1-1.9-0.2-3.5,2-3.5l5.6,0c2.2,0,5.8,0,8,0l5.6,0c2.2,0,3.1,1.6,2,3.5l-2.8,4.8c-1.1,1.9-2.9,5-4,6.9l-2.8,4.8
							c-1.1,1.9-2.9,1.9-4,0L353.4,277z"/>
					</g>
					<g>
						<path fill="#FFD44A" d="M349.4,270.1c1.1,1.9,2.9,5,4,6.9l2.8,4.8c1.1,1.9,0.2,3.5-2,3.5l-5.6,0c-2.2,0-5.8,0-8,0l-5.6,0
							c-2.2,0-3.1-1.6-2-3.5l2.8-4.8c1.1-1.9,2.9-5,4-6.9l2.8-4.8c1.1-1.9,2.9-1.9,4,0L349.4,270.1z"/>
						<path fill="none" stroke="#FF8C36" stroke-width="1.3331" stroke-miterlimit="1" d="M349.4,270.1c1.1,1.9,2.9,5,4,6.9l2.8,4.8
							c1.1,1.9,0.2,3.5-2,3.5l-5.6,0c-2.2,0-5.8,0-8,0l-5.6,0c-2.2,0-3.1-1.6-2-3.5l2.8-4.8c1.1-1.9,2.9-5,4-6.9l2.8-4.8
							c1.1-1.9,2.9-1.9,4,0L349.4,270.1z"/>
					</g>
					<g>
						<path fill="#FFD44A" d="M312.6,300.5c-1.1-1.9-2.9-5-4-6.9l-2.8-4.8c-1.1-1.9-0.2-3.5,2-3.5l5.6,0c2.2,0,5.8,0,8,0l5.6,0
							c2.2,0,3.1,1.6,2,3.5l-2.8,4.8c-1.1,1.9-2.9,5-4,6.9l-2.8,4.8c-1.1,1.9-2.9,1.9-4,0L312.6,300.5z"/>
						<path fill="none" stroke="#FF8C36" stroke-width="1.3331" stroke-miterlimit="1" d="M312.6,300.5c-1.1-1.9-2.9-5-4-6.9
							l-2.8-4.8c-1.1-1.9-0.2-3.5,2-3.5l5.6,0c2.2,0,5.8,0,8,0l5.6,0c2.2,0,3.1,1.6,2,3.5l-2.8,4.8c-1.1,1.9-2.9,5-4,6.9l-2.8,4.8
							c-1.1,1.9-2.9,1.9-4,0L312.6,300.5z"/>
					</g>
					<g>
						<path fill="#FFD44A" d="M285.4,300.5c-1.1-1.9-2.9-5-4-6.9l-2.8-4.8c-1.1-1.9-0.2-3.5,2-3.5l5.6,0c2.2,0,5.8,0,8,0l5.6,0
							c2.2,0,3.1,1.6,2,3.5l-2.8,4.8c-1.1,1.9-2.9,5-4,6.9l-2.8,4.8c-1.1,1.9-2.9,1.9-4,0L285.4,300.5z"/>
						<path fill="none" stroke="#FF8C36" stroke-width="1.3331" stroke-miterlimit="1" d="M285.4,300.5c-1.1-1.9-2.9-5-4-6.9
							l-2.8-4.8c-1.1-1.9-0.2-3.5,2-3.5l5.6,0c2.2,0,5.8,0,8,0l5.6,0c2.2,0,3.1,1.6,2,3.5l-2.8,4.8c-1.1,1.9-2.9,5-4,6.9l-2.8,4.8
							c-1.1,1.9-2.9,1.9-4,0L285.4,300.5z"/>
					</g>
					<g>
						<path fill="#FFD44A" d="M299,324c-1.1-1.9-2.9-5-4-6.9l-2.8-4.8c-1.1-1.9-0.2-3.5,2-3.5l5.6,0c2.2,0,5.8,0,8,0l5.6,0
							c2.2,0,3.1,1.6,2,3.5l-2.8,4.8c-1.1,1.9-2.9,5-4,6.9l-2.8,4.8c-1.1,1.9-2.9,1.9-4,0L299,324z"/>
						<path fill="none" stroke="#FF8C36" stroke-width="1.3331" stroke-miterlimit="1" d="M299,324c-1.1-1.9-2.9-5-4-6.9l-2.8-4.8
							c-1.1-1.9-0.2-3.5,2-3.5l5.6,0c2.2,0,5.8,0,8,0l5.6,0c2.2,0,3.1,1.6,2,3.5l-2.8,4.8c-1.1,1.9-2.9,5-4,6.9l-2.8,4.8
							c-1.1,1.9-2.9,1.9-4,0L299,324z"/>
					</g>
					<g>
						<path fill="#FFD44A" d="M308.6,293.6c1.1,1.9,2.9,5,4,6.9l2.8,4.8c1.1,1.9,0.2,3.5-2,3.5l-5.6,0c-2.2,0-5.8,0-8,0l-5.6,0
							c-2.2,0-3.1-1.6-2-3.5l2.8-4.8c1.1-1.9,2.9-5,4-6.9l2.8-4.8c1.1-1.9,2.9-1.9,4,0L308.6,293.6z"/>
						<path fill="none" stroke="#FF8C36" stroke-width="1.3331" stroke-miterlimit="1" d="M308.6,293.6c1.1,1.9,2.9,5,4,6.9l2.8,4.8
							c1.1,1.9,0.2,3.5-2,3.5l-5.6,0c-2.2,0-5.8,0-8,0l-5.6,0c-2.2,0-3.1-1.6-2-3.5l2.8-4.8c1.1-1.9,2.9-5,4-6.9l2.8-4.8
							c1.1-1.9,2.9-1.9,4,0L308.6,293.6z"/>
					</g>
					<g>
						<path fill="#FFD44A" d="M322.2,317.1c1.1,1.9,2.9,5,4,6.9l2.8,4.8c1.1,1.9,0.2,3.5-2,3.5l-5.6,0c-2.2,0-5.8,0-8,0l-5.6,0
							c-2.2,0-3.1-1.6-2-3.5l2.8-4.8c1.1-1.9,2.9-5,4-6.9l2.8-4.8c1.1-1.9,2.9-1.9,4,0L322.2,317.1z"/>
						<path fill="none" stroke="#FF8C36" stroke-width="1.3331" stroke-miterlimit="1" d="M322.2,317.1c1.1,1.9,2.9,5,4,6.9l2.8,4.8
							c1.1,1.9,0.2,3.5-2,3.5l-5.6,0c-2.2,0-5.8,0-8,0l-5.6,0c-2.2,0-3.1-1.6-2-3.5l2.8-4.8c1.1-1.9,2.9-5,4-6.9l2.8-4.8
							c1.1-1.9,2.9-1.9,4,0L322.2,317.1z"/>
					</g>
					<g>
						<path fill="#FFD44A" d="M295,270c1.1,1.9,2.9,5,4,6.9l2.8,4.8c1.1,1.9,0.2,3.5-2,3.5l-5.6,0c-2.2,0-5.8,0-8,0l-5.6,0
							c-2.2,0-3.1-1.6-2-3.5l2.8-4.8c1.1-1.9,2.9-5,4-6.9l2.8-4.8c1.1-1.9,2.9-1.9,4,0L295,270z"/>
						<path fill="none" stroke="#FF8C36" stroke-width="1.3331" stroke-miterlimit="1" d="M295,270c1.1,1.9,2.9,5,4,6.9l2.8,4.8
							c1.1,1.9,0.2,3.5-2,3.5l-5.6,0c-2.2,0-5.8,0-8,0l-5.6,0c-2.2,0-3.1-1.6-2-3.5l2.8-4.8c1.1-1.9,2.9-5,4-6.9l2.8-4.8
							c1.1-1.9,2.9-1.9,4,0L295,270z"/>
					</g>
					<g>
						<path fill="#FFD44A" d="M322.2,270c1.1,1.9,2.9,5,4,6.9l2.8,4.8c1.1,1.9,0.2,3.5-2,3.5l-5.6,0c-2.2,0-5.8,0-8,0l-5.6,0
							c-2.2,0-3.1-1.6-2-3.5l2.8-4.8c1.1-1.9,2.9-5,4-6.9l2.8-4.8c1.1-1.9,2.9-1.9,4,0L322.2,270z"/>
						<path fill="none" stroke="#FF8C36" stroke-width="1.3331" stroke-miterlimit="1" d="M322.2,270c1.1,1.9,2.9,5,4,6.9l2.8,4.8
							c1.1,1.9,0.2,3.5-2,3.5l-5.6,0c-2.2,0-5.8,0-8,0l-5.6,0c-2.2,0-3.1-1.6-2-3.5l2.8-4.8c1.1-1.9,2.9-5,4-6.9l2.8-4.8
							c1.1-1.9,2.9-1.9,4,0L322.2,270z"/>
					</g>
					<g>
						<path fill="#FFD44A" d="M326.2,277c-1.1-1.9-2.9-5-4-6.9l-2.8-4.8c-1.1-1.9-0.2-3.5,2-3.5l5.6,0c2.2,0,5.8,0,8,0l5.6,0
							c2.2,0,3.1,1.6,2,3.5l-2.8,4.8c-1.1,1.9-2.9,5-4,6.9l-2.8,4.8c-1.1,1.9-2.9,1.9-4,0L326.2,277z"/>
						<path fill="none" stroke="#FF8C36" stroke-width="1.3331" stroke-miterlimit="1" d="M326.2,277c-1.1-1.9-2.9-5-4-6.9l-2.8-4.8
							c-1.1-1.9-0.2-3.5,2-3.5l5.6,0c2.2,0,5.8,0,8,0l5.6,0c2.2,0,3.1,1.6,2,3.5l-2.8,4.8c-1.1,1.9-2.9,5-4,6.9l-2.8,4.8
							c-1.1,1.9-2.9,1.9-4,0L326.2,277z"/>
					</g>
					<g>
						<path fill="#FFD44A" d="M299,277c-1.1-1.9-2.9-5-4-6.9l-2.8-4.8c-1.1-1.9-0.2-3.5,2-3.5l5.6,0c2.2,0,5.8,0,8,0l5.6,0
							c2.2,0,3.1,1.6,2,3.5l-2.8,4.8c-1.1,1.9-2.9,5-4,6.9l-2.8,4.8c-1.1,1.9-2.9,1.9-4,0L299,277z"/>
						<path fill="none" stroke="#FF8C36" stroke-width="1.3331" stroke-miterlimit="1" d="M299,277c-1.1-1.9-2.9-5-4-6.9l-2.8-4.8
							c-1.1-1.9-0.2-3.5,2-3.5l5.6,0c2.2,0,5.8,0,8,0l5.6,0c2.2,0,3.1,1.6,2,3.5l-2.8,4.8c-1.1,1.9-2.9,5-4,6.9l-2.8,4.8
							c-1.1,1.9-2.9,1.9-4,0L299,277z"/>
					</g>
					<g>
						<path fill="#FFD44A" d="M335.8,293.6c1.1,1.9,2.9,5,4,6.9l2.8,4.8c1.1,1.9,0.2,3.5-2,3.5l-5.6,0c-2.2,0-5.8,0-8,0l-5.6,0
							c-2.2,0-3.1-1.6-2-3.5l2.8-4.8c1.1-1.9,2.9-5,4-6.9l2.8-4.8c1.1-1.9,2.9-1.9,4,0L335.8,293.6z"/>
						<path fill="none" stroke="#FF8C36" stroke-width="1.3331" stroke-miterlimit="1" d="M335.8,293.6c1.1,1.9,2.9,5,4,6.9l2.8,4.8
							c1.1,1.9,0.2,3.5-2,3.5l-5.6,0c-2.2,0-5.8,0-8,0l-5.6,0c-2.2,0-3.1-1.6-2-3.5l2.8-4.8c1.1-1.9,2.9-5,4-6.9l2.8-4.8
							c1.1-1.9,2.9-1.9,4,0L335.8,293.6z"/>
					</g>
					<g>
						<path fill="#FFD44A" d="M312.6,300.5c-1.1-1.9-2.9-5-4-6.9l-2.8-4.8c-1.1-1.9-0.2-3.5,2-3.5l5.6,0c2.2,0,5.8,0,8,0l5.6,0
							c2.2,0,3.1,1.6,2,3.5l-2.8,4.8c-1.1,1.9-2.9,5-4,6.9l-2.8,4.8c-1.1,1.9-2.9,1.9-4,0L312.6,300.5z"/>
						<path fill="none" stroke="#FF8C36" stroke-width="1.3331" stroke-miterlimit="1" d="M312.6,300.5c-1.1-1.9-2.9-5-4-6.9
							l-2.8-4.8c-1.1-1.9-0.2-3.5,2-3.5l5.6,0c2.2,0,5.8,0,8,0l5.6,0c2.2,0,3.1,1.6,2,3.5l-2.8,4.8c-1.1,1.9-2.9,5-4,6.9l-2.8,4.8
							c-1.1,1.9-2.9,1.9-4,0L312.6,300.5z"/>
					</g>
					<g>
						<path fill="#FFD44A" d="M271.8,324c-1.1-1.9-2.9-5-4-6.9l-2.8-4.8c-1.1-1.9-0.2-3.5,2-3.5l5.6,0c2.2,0,5.8,0,8,0l5.6,0
							c2.2,0,3.1,1.6,2,3.5l-2.8,4.8c-1.1,1.9-2.9,5-4,6.9l-2.8,4.8c-1.1,1.9-2.9,1.9-4,0L271.8,324z"/>
						<path fill="none" stroke="#FF8C36" stroke-width="1.3331" stroke-miterlimit="1" d="M271.8,324c-1.1-1.9-2.9-5-4-6.9l-2.8-4.8
							c-1.1-1.9-0.2-3.5,2-3.5l5.6,0c2.2,0,5.8,0,8,0l5.6,0c2.2,0,3.1,1.6,2,3.5l-2.8,4.8c-1.1,1.9-2.9,5-4,6.9l-2.8,4.8
							c-1.1,1.9-2.9,1.9-4,0L271.8,324z"/>
					</g>
					<g>
						<path fill="#FFD44A" d="M281.4,293.6c1.1,1.9,2.9,5,4,6.9l2.8,4.8c1.1,1.9,0.2,3.5-2,3.5l-5.6,0c-2.2,0-5.8,0-8,0l-5.6,0
							c-2.2,0-3.1-1.6-2-3.5l2.8-4.8c1.1-1.9,2.9-5,4-6.9l2.8-4.8c1.1-1.9,2.9-1.9,4,0L281.4,293.6z"/>
						<path fill="none" stroke="#FF8C36" stroke-width="1.3331" stroke-miterlimit="1" d="M281.4,293.6c1.1,1.9,2.9,5,4,6.9l2.8,4.8
							c1.1,1.9,0.2,3.5-2,3.5l-5.6,0c-2.2,0-5.8,0-8,0l-5.6,0c-2.2,0-3.1-1.6-2-3.5l2.8-4.8c1.1-1.9,2.9-5,4-6.9l2.8-4.8
							c1.1-1.9,2.9-1.9,4,0L281.4,293.6z"/>
					</g>
					<g>
						<path fill="#FFD44A" d="M295,317.1c1.1,1.9,2.9,5,4,6.9l2.8,4.8c1.1,1.9,0.2,3.5-2,3.5l-5.6,0c-2.2,0-5.8,0-8,0l-5.6,0
							c-2.2,0-3.1-1.6-2-3.5l2.8-4.8c1.1-1.9,2.9-5,4-6.9l2.8-4.8c1.1-1.9,2.9-1.9,4,0L295,317.1z"/>
						<path fill="none" stroke="#FF8C36" stroke-width="1.3331" stroke-miterlimit="1" d="M295,317.1c1.1,1.9,2.9,5,4,6.9l2.8,4.8
							c1.1,1.9,0.2,3.5-2,3.5l-5.6,0c-2.2,0-5.8,0-8,0l-5.6,0c-2.2,0-3.1-1.6-2-3.5l2.8-4.8c1.1-1.9,2.9-5,4-6.9l2.8-4.8
							c1.1-1.9,2.9-1.9,4,0L295,317.1z"/>
					</g>
					<g>
						<path fill="#FFD44A" d="M271.8,324c-1.1-1.9-2.9-5-4-6.9l-2.8-4.8c-1.1-1.9-0.2-3.5,2-3.5l5.6,0c2.2,0,5.8,0,8,0l5.6,0
							c2.2,0,3.1,1.6,2,3.5l-2.8,4.8c-1.1,1.9-2.9,5-4,6.9l-2.8,4.8c-1.1,1.9-2.9,1.9-4,0L271.8,324z"/>
						<path fill="none" stroke="#FF8C36" stroke-width="1.3331" stroke-miterlimit="1" d="M271.8,324c-1.1-1.9-2.9-5-4-6.9l-2.8-4.8
							c-1.1-1.9-0.2-3.5,2-3.5l5.6,0c2.2,0,5.8,0,8,0l5.6,0c2.2,0,3.1,1.6,2,3.5l-2.8,4.8c-1.1,1.9-2.9,5-4,6.9l-2.8,4.8
							c-1.1,1.9-2.9,1.9-4,0L271.8,324z"/>
					</g>
					<g>
						<path fill="#FFD44A" d="M339.8,300.5c-1.1-1.9-2.9-5-4-6.9l-2.8-4.8c-1.1-1.9-0.2-3.5,2-3.5l5.6,0c2.2,0,5.8,0,8,0l5.6,0
							c2.2,0,3.1,1.6,2,3.5l-2.8,4.8c-1.1,1.9-2.9,5-4,6.9l-2.8,4.8c-1.1,1.9-2.9,1.9-4,0L339.8,300.5z"/>
						<path fill="none" stroke="#FF8C36" stroke-width="1.3331" stroke-miterlimit="1" d="M339.8,300.5c-1.1-1.9-2.9-5-4-6.9
							l-2.8-4.8c-1.1-1.9-0.2-3.5,2-3.5l5.6,0c2.2,0,5.8,0,8,0l5.6,0c2.2,0,3.1,1.6,2,3.5l-2.8,4.8c-1.1,1.9-2.9,5-4,6.9l-2.8,4.8
							c-1.1,1.9-2.9,1.9-4,0L339.8,300.5z"/>
					</g>
					<g>
						<path fill="#FFD44A" d="M326.2,324.1c-1.1-1.9-2.9-5-4-6.9l-2.8-4.8c-1.1-1.9-0.2-3.5,2-3.5l5.6,0c2.2,0,5.8,0,8,0l5.6,0
							c2.2,0,3.1,1.6,2,3.5l-2.8,4.8c-1.1,1.9-2.9,5-4,6.9l-2.8,4.8c-1.1,1.9-2.9,1.9-4,0L326.2,324.1z"/>
						<path fill="none" stroke="#FF8C36" stroke-width="1.3331" stroke-miterlimit="1" d="M326.2,324.1c-1.1-1.9-2.9-5-4-6.9
							l-2.8-4.8c-1.1-1.9-0.2-3.5,2-3.5l5.6,0c2.2,0,5.8,0,8,0l5.6,0c2.2,0,3.1,1.6,2,3.5l-2.8,4.8c-1.1,1.9-2.9,5-4,6.9l-2.8,4.8
							c-1.1,1.9-2.9,1.9-4,0L326.2,324.1z"/>
					</g>
				</g>
			</g>
			<g>
				<g>
					<g>
						<path fill="#FFD44A" d="M97.5,415.4c1.1,1.9,2.9,5,4,6.9l2.8,4.8c1.1,1.9,0.2,3.5-2,3.5l-5.6,0c-2.2,0-5.8,0-8,0l-5.6,0
							c-2.2,0-3.1-1.6-2-3.5l2.8-4.8c1.1-1.9,2.9-5,4-6.9l2.8-4.8c1.1-1.9,2.9-1.9,4,0L97.5,415.4z"/>
						<path fill="none" stroke="#FF8C36" stroke-width="1.3331" stroke-miterlimit="1" d="M97.5,415.4c1.1,1.9,2.9,5,4,6.9l2.8,4.8
							c1.1,1.9,0.2,3.5-2,3.5l-5.6,0c-2.2,0-5.8,0-8,0l-5.6,0c-2.2,0-3.1-1.6-2-3.5l2.8-4.8c1.1-1.9,2.9-5,4-6.9l2.8-4.8
							c1.1-1.9,2.9-1.9,4,0L97.5,415.4z"/>
					</g>
					<g>
						<path fill="#FFD44A" d="M101.5,422.3c-1.1-1.9-2.9-5-4-6.9l-2.8-4.8c-1.1-1.9-0.2-3.5,2-3.5l5.6,0c2.2,0,5.8,0,8,0l5.6,0
							c2.2,0,3.1,1.6,2,3.5l-2.8,4.8c-1.1,1.9-2.9,5-4,6.9l-2.8,4.8c-1.1,1.9-2.9,1.9-4,0L101.5,422.3z"/>
						<path fill="none" stroke="#FF8C36" stroke-width="1.3331" stroke-miterlimit="1" d="M101.5,422.3c-1.1-1.9-2.9-5-4-6.9
							l-2.8-4.8c-1.1-1.9-0.2-3.5,2-3.5l5.6,0c2.2,0,5.8,0,8,0l5.6,0c2.2,0,3.1,1.6,2,3.5l-2.8,4.8c-1.1,1.9-2.9,5-4,6.9l-2.8,4.8
							c-1.1,1.9-2.9,1.9-4,0L101.5,422.3z"/>
					</g>
					<g>
						<path fill="#FFD44A" d="M138.3,391.9c1.1,1.9,2.9,5,4,6.9l2.8,4.8c1.1,1.9,0.2,3.5-2,3.5l-5.6,0c-2.2,0-5.8,0-8,0l-5.6,0
							c-2.2,0-3.1-1.6-2-3.5l2.8-4.8c1.1-1.9,2.9-5,4-6.9l2.8-4.8c1.1-1.9,2.9-1.9,4,0L138.3,391.9z"/>
						<path fill="none" stroke="#FF8C36" stroke-width="1.3331" stroke-miterlimit="1" d="M138.3,391.9c1.1,1.9,2.9,5,4,6.9l2.8,4.8
							c1.1,1.9,0.2,3.5-2,3.5l-5.6,0c-2.2,0-5.8,0-8,0l-5.6,0c-2.2,0-3.1-1.6-2-3.5l2.8-4.8c1.1-1.9,2.9-5,4-6.9l2.8-4.8
							c1.1-1.9,2.9-1.9,4,0L138.3,391.9z"/>
					</g>
					<g>
						<path fill="#FFD44A" d="M165.5,391.9c1.1,1.9,2.9,5,4,6.9l2.8,4.8c1.1,1.9,0.2,3.5-2,3.5l-5.6,0c-2.2,0-5.8,0-8,0l-5.6,0
							c-2.2,0-3.1-1.6-2-3.5l2.8-4.8c1.1-1.9,2.9-5,4-6.9l2.8-4.8c1.1-1.9,2.9-1.9,4,0L165.5,391.9z"/>
						<path fill="none" stroke="#FF8C36" stroke-width="1.3331" stroke-miterlimit="1" d="M165.5,391.9c1.1,1.9,2.9,5,4,6.9l2.8,4.8
							c1.1,1.9,0.2,3.5-2,3.5l-5.6,0c-2.2,0-5.8,0-8,0l-5.6,0c-2.2,0-3.1-1.6-2-3.5l2.8-4.8c1.1-1.9,2.9-5,4-6.9l2.8-4.8
							c1.1-1.9,2.9-1.9,4,0L165.5,391.9z"/>
					</g>
					<g>
						<path fill="#FFD44A" d="M151.9,368.3c1.1,1.9,2.9,5,4,6.9l2.8,4.8c1.1,1.9,0.2,3.5-2,3.5l-5.6,0c-2.2,0-5.8,0-8,0l-5.6,0
							c-2.2,0-3.1-1.6-2-3.5l2.8-4.8c1.1-1.9,2.9-5,4-6.9l2.8-4.8c1.1-1.9,2.9-1.9,4,0L151.9,368.3z"/>
						<path fill="none" stroke="#FF8C36" stroke-width="1.3331" stroke-miterlimit="1" d="M151.9,368.3c1.1,1.9,2.9,5,4,6.9l2.8,4.8
							c1.1,1.9,0.2,3.5-2,3.5l-5.6,0c-2.2,0-5.8,0-8,0l-5.6,0c-2.2,0-3.1-1.6-2-3.5l2.8-4.8c1.1-1.9,2.9-5,4-6.9l2.8-4.8
							c1.1-1.9,2.9-1.9,4,0L151.9,368.3z"/>
					</g>
					<g>
						<path fill="#FFD44A" d="M142.3,398.8c-1.1-1.9-2.9-5-4-6.9l-2.8-4.8c-1.1-1.9-0.2-3.5,2-3.5l5.6,0c2.2,0,5.8,0,8,0l5.6,0
							c2.2,0,3.1,1.6,2,3.5l-2.8,4.8c-1.1,1.9-2.9,5-4,6.9l-2.8,4.8c-1.1,1.9-2.9,1.9-4,0L142.3,398.8z"/>
						<path fill="none" stroke="#FF8C36" stroke-width="1.3331" stroke-miterlimit="1" d="M142.3,398.8c-1.1-1.9-2.9-5-4-6.9
							l-2.8-4.8c-1.1-1.9-0.2-3.5,2-3.5l5.6,0c2.2,0,5.8,0,8,0l5.6,0c2.2,0,3.1,1.6,2,3.5l-2.8,4.8c-1.1,1.9-2.9,5-4,6.9l-2.8,4.8
							c-1.1,1.9-2.9,1.9-4,0L142.3,398.8z"/>
					</g>
					<g>
						<path fill="#FFD44A" d="M128.7,375.2c-1.1-1.9-2.9-5-4-6.9l-2.8-4.8c-1.1-1.9-0.2-3.5,2-3.5l5.6,0c2.2,0,5.8,0,8,0l5.6,0
							c2.2,0,3.1,1.6,2,3.5l-2.8,4.8c-1.1,1.9-2.9,5-4,6.9l-2.8,4.8c-1.1,1.9-2.9,1.9-4,0L128.7,375.2z"/>
						<path fill="none" stroke="#FF8C36" stroke-width="1.3331" stroke-miterlimit="1" d="M128.7,375.2c-1.1-1.9-2.9-5-4-6.9
							l-2.8-4.8c-1.1-1.9-0.2-3.5,2-3.5l5.6,0c2.2,0,5.8,0,8,0l5.6,0c2.2,0,3.1,1.6,2,3.5l-2.8,4.8c-1.1,1.9-2.9,5-4,6.9l-2.8,4.8
							c-1.1,1.9-2.9,1.9-4,0L128.7,375.2z"/>
					</g>
					<g>
						<path fill="#FFD44A" d="M155.9,422.3c-1.1-1.9-2.9-5-4-6.9l-2.8-4.8c-1.1-1.9-0.2-3.5,2-3.5l5.6,0c2.2,0,5.8,0,8,0l5.6,0
							c2.2,0,3.1,1.6,2,3.5l-2.8,4.8c-1.1,1.9-2.9,5-4,6.9l-2.8,4.8c-1.1,1.9-2.9,1.9-4,0L155.9,422.3z"/>
						<path fill="none" stroke="#FF8C36" stroke-width="1.3331" stroke-miterlimit="1" d="M155.9,422.3c-1.1-1.9-2.9-5-4-6.9
							l-2.8-4.8c-1.1-1.9-0.2-3.5,2-3.5l5.6,0c2.2,0,5.8,0,8,0l5.6,0c2.2,0,3.1,1.6,2,3.5l-2.8,4.8c-1.1,1.9-2.9,5-4,6.9l-2.8,4.8
							c-1.1,1.9-2.9,1.9-4,0L155.9,422.3z"/>
					</g>
					<g>
						<path fill="#FFD44A" d="M128.7,422.3c-1.1-1.9-2.9-5-4-6.9l-2.8-4.8c-1.1-1.9-0.2-3.5,2-3.5l5.6,0c2.2,0,5.8,0,8,0l5.6,0
							c2.2,0,3.1,1.6,2,3.5l-2.8,4.8c-1.1,1.9-2.9,5-4,6.9l-2.8,4.8c-1.1,1.9-2.9,1.9-4,0L128.7,422.3z"/>
						<path fill="none" stroke="#FF8C36" stroke-width="1.3331" stroke-miterlimit="1" d="M128.7,422.3c-1.1-1.9-2.9-5-4-6.9
							l-2.8-4.8c-1.1-1.9-0.2-3.5,2-3.5l5.6,0c2.2,0,5.8,0,8,0l5.6,0c2.2,0,3.1,1.6,2,3.5l-2.8,4.8c-1.1,1.9-2.9,5-4,6.9l-2.8,4.8
							c-1.1,1.9-2.9,1.9-4,0L128.7,422.3z"/>
					</g>
					<g>
						<path fill="#FFD44A" d="M124.7,415.4c1.1,1.9,2.9,5,4,6.9l2.8,4.8c1.1,1.9,0.2,3.5-2,3.5l-5.6,0c-2.2,0-5.8,0-8,0l-5.6,0
							c-2.2,0-3.1-1.6-2-3.5l2.8-4.8c1.1-1.9,2.9-5,4-6.9l2.8-4.8c1.1-1.9,2.9-1.9,4,0L124.7,415.4z"/>
						<path fill="none" stroke="#FF8C36" stroke-width="1.3331" stroke-miterlimit="1" d="M124.7,415.4c1.1,1.9,2.9,5,4,6.9l2.8,4.8
							c1.1,1.9,0.2,3.5-2,3.5l-5.6,0c-2.2,0-5.8,0-8,0l-5.6,0c-2.2,0-3.1-1.6-2-3.5l2.8-4.8c1.1-1.9,2.9-5,4-6.9l2.8-4.8
							c1.1-1.9,2.9-1.9,4,0L124.7,415.4z"/>
					</g>
					<g>
						<path fill="#FFD44A" d="M151.9,415.4c1.1,1.9,2.9,5,4,6.9l2.8,4.8c1.1,1.9,0.2,3.5-2,3.5l-5.6,0c-2.2,0-5.8,0-8,0l-5.6,0
							c-2.2,0-3.1-1.6-2-3.5l2.8-4.8c1.1-1.9,2.9-5,4-6.9l2.8-4.8c1.1-1.9,2.9-1.9,4,0L151.9,415.4z"/>
						<path fill="none" stroke="#FF8C36" stroke-width="1.3331" stroke-miterlimit="1" d="M151.9,415.4c1.1,1.9,2.9,5,4,6.9l2.8,4.8
							c1.1,1.9,0.2,3.5-2,3.5l-5.6,0c-2.2,0-5.8,0-8,0l-5.6,0c-2.2,0-3.1-1.6-2-3.5l2.8-4.8c1.1-1.9,2.9-5,4-6.9l2.8-4.8
							c1.1-1.9,2.9-1.9,4,0L151.9,415.4z"/>
					</g>
					<g>
						<path fill="#FFD44A" d="M115.1,398.8c-1.1-1.9-2.9-5-4-6.9l-2.8-4.8c-1.1-1.9-0.2-3.5,2-3.5l5.6,0c2.2,0,5.8,0,8,0l5.6,0
							c2.2,0,3.1,1.6,2,3.5l-2.8,4.8c-1.1,1.9-2.9,5-4,6.9l-2.8,4.8c-1.1,1.9-2.9,1.9-4,0L115.1,398.8z"/>
						<path fill="none" stroke="#FF8C36" stroke-width="1.3331" stroke-miterlimit="1" d="M115.1,398.8c-1.1-1.9-2.9-5-4-6.9
							l-2.8-4.8c-1.1-1.9-0.2-3.5,2-3.5l5.6,0c2.2,0,5.8,0,8,0l5.6,0c2.2,0,3.1,1.6,2,3.5l-2.8,4.8c-1.1,1.9-2.9,5-4,6.9l-2.8,4.8
							c-1.1,1.9-2.9,1.9-4,0L115.1,398.8z"/>
					</g>
					<g>
						<path fill="#FFD44A" d="M138.3,391.9c1.1,1.9,2.9,5,4,6.9l2.8,4.8c1.1,1.9,0.2,3.5-2,3.5l-5.6,0c-2.2,0-5.8,0-8,0l-5.6,0
							c-2.2,0-3.1-1.6-2-3.5l2.8-4.8c1.1-1.9,2.9-5,4-6.9l2.8-4.8c1.1-1.9,2.9-1.9,4,0L138.3,391.9z"/>
						<path fill="none" stroke="#FF8C36" stroke-width="1.3331" stroke-miterlimit="1" d="M138.3,391.9c1.1,1.9,2.9,5,4,6.9l2.8,4.8
							c1.1,1.9,0.2,3.5-2,3.5l-5.6,0c-2.2,0-5.8,0-8,0l-5.6,0c-2.2,0-3.1-1.6-2-3.5l2.8-4.8c1.1-1.9,2.9-5,4-6.9l2.8-4.8
							c1.1-1.9,2.9-1.9,4,0L138.3,391.9z"/>
					</g>
					<g>
						<path fill="#FFD44A" d="M179.1,368.3c1.1,1.9,2.9,5,4,6.9l2.8,4.8c1.1,1.9,0.2,3.5-2,3.5l-5.6,0c-2.2,0-5.8,0-8,0l-5.6,0
							c-2.2,0-3.1-1.6-2-3.5l2.8-4.8c1.1-1.9,2.9-5,4-6.9l2.8-4.8c1.1-1.9,2.9-1.9,4,0L179.1,368.3z"/>
						<path fill="none" stroke="#FF8C36" stroke-width="1.3331" stroke-miterlimit="1" d="M179.1,368.3c1.1,1.9,2.9,5,4,6.9l2.8,4.8
							c1.1,1.9,0.2,3.5-2,3.5l-5.6,0c-2.2,0-5.8,0-8,0l-5.6,0c-2.2,0-3.1-1.6-2-3.5l2.8-4.8c1.1-1.9,2.9-5,4-6.9l2.8-4.8
							c1.1-1.9,2.9-1.9,4,0L179.1,368.3z"/>
					</g>
					<g>
						<path fill="#FFD44A" d="M169.5,398.8c-1.1-1.9-2.9-5-4-6.9l-2.8-4.8c-1.1-1.9-0.2-3.5,2-3.5l5.6,0c2.2,0,5.8,0,8,0l5.6,0
							c2.2,0,3.1,1.6,2,3.5l-2.8,4.8c-1.1,1.9-2.9,5-4,6.9l-2.8,4.8c-1.1,1.9-2.9,1.9-4,0L169.5,398.8z"/>
						<path fill="none" stroke="#FF8C36" stroke-width="1.3331" stroke-miterlimit="1" d="M169.5,398.8c-1.1-1.9-2.9-5-4-6.9
							l-2.8-4.8c-1.1-1.9-0.2-3.5,2-3.5l5.6,0c2.2,0,5.8,0,8,0l5.6,0c2.2,0,3.1,1.6,2,3.5l-2.8,4.8c-1.1,1.9-2.9,5-4,6.9l-2.8,4.8
							c-1.1,1.9-2.9,1.9-4,0L169.5,398.8z"/>
					</g>
					<g>
						<path fill="#FFD44A" d="M155.9,375.2c-1.1-1.9-2.9-5-4-6.9l-2.8-4.8c-1.1-1.9-0.2-3.5,2-3.5l5.6,0c2.2,0,5.8,0,8,0l5.6,0
							c2.2,0,3.1,1.6,2,3.5l-2.8,4.8c-1.1,1.9-2.9,5-4,6.9l-2.8,4.8c-1.1,1.9-2.9,1.9-4,0L155.9,375.2z"/>
						<path fill="none" stroke="#FF8C36" stroke-width="1.3331" stroke-miterlimit="1" d="M155.9,375.2c-1.1-1.9-2.9-5-4-6.9
							l-2.8-4.8c-1.1-1.9-0.2-3.5,2-3.5l5.6,0c2.2,0,5.8,0,8,0l5.6,0c2.2,0,3.1,1.6,2,3.5l-2.8,4.8c-1.1,1.9-2.9,5-4,6.9l-2.8,4.8
							c-1.1,1.9-2.9,1.9-4,0L155.9,375.2z"/>
					</g>
					<g>
						<path fill="#FFD44A" d="M179.1,368.3c1.1,1.9,2.9,5,4,6.9l2.8,4.8c1.1,1.9,0.2,3.5-2,3.5l-5.6,0c-2.2,0-5.8,0-8,0l-5.6,0
							c-2.2,0-3.1-1.6-2-3.5l2.8-4.8c1.1-1.9,2.9-5,4-6.9l2.8-4.8c1.1-1.9,2.9-1.9,4,0L179.1,368.3z"/>
						<path fill="none" stroke="#FF8C36" stroke-width="1.3331" stroke-miterlimit="1" d="M179.1,368.3c1.1,1.9,2.9,5,4,6.9l2.8,4.8
							c1.1,1.9,0.2,3.5-2,3.5l-5.6,0c-2.2,0-5.8,0-8,0l-5.6,0c-2.2,0-3.1-1.6-2-3.5l2.8-4.8c1.1-1.9,2.9-5,4-6.9l2.8-4.8
							c1.1-1.9,2.9-1.9,4,0L179.1,368.3z"/>
					</g>
					<g>
						<path fill="#FFD44A" d="M111.1,391.8c1.1,1.9,2.9,5,4,6.9l2.8,4.8c1.1,1.9,0.2,3.5-2,3.5l-5.6,0c-2.2,0-5.8,0-8,0l-5.6,0
							c-2.2,0-3.1-1.6-2-3.5l2.8-4.8c1.1-1.9,2.9-5,4-6.9l2.8-4.8c1.1-1.9,2.9-1.9,4,0L111.1,391.8z"/>
						<path fill="none" stroke="#FF8C36" stroke-width="1.3331" stroke-miterlimit="1" d="M111.1,391.8c1.1,1.9,2.9,5,4,6.9l2.8,4.8
							c1.1,1.9,0.2,3.5-2,3.5l-5.6,0c-2.2,0-5.8,0-8,0l-5.6,0c-2.2,0-3.1-1.6-2-3.5l2.8-4.8c1.1-1.9,2.9-5,4-6.9l2.8-4.8
							c1.1-1.9,2.9-1.9,4,0L111.1,391.8z"/>
					</g>
					<g>
						<path fill="#FFD44A" d="M124.7,368.3c1.1,1.9,2.9,5,4,6.9l2.8,4.8c1.1,1.9,0.2,3.5-2,3.5l-5.6,0c-2.2,0-5.8,0-8,0l-5.6,0
							c-2.2,0-3.1-1.6-2-3.5l2.8-4.8c1.1-1.9,2.9-5,4-6.9l2.8-4.8c1.1-1.9,2.9-1.9,4,0L124.7,368.3z"/>
						<path fill="none" stroke="#FF8C36" stroke-width="1.3331" stroke-miterlimit="1" d="M124.7,368.3c1.1,1.9,2.9,5,4,6.9l2.8,4.8
							c1.1,1.9,0.2,3.5-2,3.5l-5.6,0c-2.2,0-5.8,0-8,0l-5.6,0c-2.2,0-3.1-1.6-2-3.5l2.8-4.8c1.1-1.9,2.9-5,4-6.9l2.8-4.8
							c1.1-1.9,2.9-1.9,4,0L124.7,368.3z"/>
					</g>
				</g>
			</g>
			<g>
				<g>
					<g>
						<path fill="#FFD44A" d="M349.3,422.4c1.1-1.9,2.9-5,4-6.9l2.8-4.8c1.1-1.9,2.9-1.9,4,0l2.8,4.8c1.1,1.9,2.9,5,4,6.9l2.8,4.8
							c1.1,1.9,0.2,3.5-2,3.5l-5.6,0c-2.2,0-5.8,0-8,0l-5.6,0c-2.2,0-3.1-1.6-2-3.5L349.3,422.4z"/>
						<path fill="none" stroke="#FF8C36" stroke-width="1.3331" stroke-miterlimit="1" d="M349.3,422.4c1.1-1.9,2.9-5,4-6.9l2.8-4.8
							c1.1-1.9,2.9-1.9,4,0l2.8,4.8c1.1,1.9,2.9,5,4,6.9l2.8,4.8c1.1,1.9,0.2,3.5-2,3.5l-5.6,0c-2.2,0-5.8,0-8,0l-5.6,0
							c-2.2,0-3.1-1.6-2-3.5L349.3,422.4z"/>
					</g>
					<g>
						<path fill="#FFD44A" d="M353.3,415.5c-1.1,1.9-2.9,5-4,6.9l-2.8,4.8c-1.1,1.9-2.9,1.9-4,0l-2.8-4.8c-1.1-1.9-2.9-5-4-6.9
							l-2.8-4.8c-1.1-1.9-0.2-3.5,2-3.5l5.6,0c2.2,0,5.8,0,8,0l5.6,0c2.2,0,3.1,1.6,2,3.5L353.3,415.5z"/>
						<path fill="none" stroke="#FF8C36" stroke-width="1.3331" stroke-miterlimit="1" d="M353.3,415.5c-1.1,1.9-2.9,5-4,6.9
							l-2.8,4.8c-1.1,1.9-2.9,1.9-4,0l-2.8-4.8c-1.1-1.9-2.9-5-4-6.9l-2.8-4.8c-1.1-1.9-0.2-3.5,2-3.5l5.6,0c2.2,0,5.8,0,8,0l5.6,0
							c2.2,0,3.1,1.6,2,3.5L353.3,415.5z"/>
					</g>
					<g>
						<path fill="#FFD44A" d="M308.6,398.9c1.1-1.9,2.9-5,4-6.9l2.8-4.8c1.1-1.9,2.9-1.9,4,0l2.8,4.8c1.1,1.9,2.9,5,4,6.9l2.8,4.8
							c1.1,1.9,0.2,3.5-2,3.5l-5.6,0c-2.2,0-5.8,0-8,0l-5.6,0c-2.2,0-3.1-1.6-2-3.5L308.6,398.9z"/>
						<path fill="none" stroke="#FF8C36" stroke-width="1.3331" stroke-miterlimit="1" d="M308.6,398.9c1.1-1.9,2.9-5,4-6.9l2.8-4.8
							c1.1-1.9,2.9-1.9,4,0l2.8,4.8c1.1,1.9,2.9,5,4,6.9l2.8,4.8c1.1,1.9,0.2,3.5-2,3.5l-5.6,0c-2.2,0-5.8,0-8,0l-5.6,0
							c-2.2,0-3.1-1.6-2-3.5L308.6,398.9z"/>
					</g>
					<g>
						<path fill="#FFD44A" d="M295,375.3c1.1-1.9,2.9-5,4-6.9l2.8-4.8c1.1-1.9,2.9-1.9,4,0l2.8,4.8c1.1,1.9,2.9,5,4,6.9l2.8,4.8
							c1.1,1.9,0.2,3.5-2,3.5l-5.6,0c-2.2,0-5.8,0-8,0l-5.6,0c-2.2,0-3.1-1.6-2-3.5L295,375.3z"/>
						<path fill="none" stroke="#FF8C36" stroke-width="1.3331" stroke-miterlimit="1" d="M295,375.3c1.1-1.9,2.9-5,4-6.9l2.8-4.8
							c1.1-1.9,2.9-1.9,4,0l2.8,4.8c1.1,1.9,2.9,5,4,6.9l2.8,4.8c1.1,1.9,0.2,3.5-2,3.5l-5.6,0c-2.2,0-5.8,0-8,0l-5.6,0
							c-2.2,0-3.1-1.6-2-3.5L295,375.3z"/>
					</g>
					<g>
						<path fill="#FFD44A" d="M281.4,398.8c1.1-1.9,2.9-5,4-6.9l2.8-4.8c1.1-1.9,2.9-1.9,4,0l2.8,4.8c1.1,1.9,2.9,5,4,6.9l2.8,4.8
							c1.1,1.9,0.2,3.5-2,3.5l-5.6,0c-2.2,0-5.8,0-8,0l-5.6,0c-2.2,0-3.1-1.6-2-3.5L281.4,398.8z"/>
						<path fill="none" stroke="#FF8C36" stroke-width="1.3331" stroke-miterlimit="1" d="M281.4,398.8c1.1-1.9,2.9-5,4-6.9l2.8-4.8
							c1.1-1.9,2.9-1.9,4,0l2.8,4.8c1.1,1.9,2.9,5,4,6.9l2.8,4.8c1.1,1.9,0.2,3.5-2,3.5l-5.6,0c-2.2,0-5.8,0-8,0l-5.6,0
							c-2.2,0-3.1-1.6-2-3.5L281.4,398.8z"/>
					</g>
					<g>
						<path fill="#FFD44A" d="M312.6,391.9c-1.1,1.9-2.9,5-4,6.9l-2.8,4.8c-1.1,1.9-2.9,1.9-4,0l-2.8-4.8c-1.1-1.9-2.9-5-4-6.9
							l-2.8-4.8c-1.1-1.9-0.2-3.5,2-3.5l5.6,0c2.2,0,5.8,0,8,0l5.6,0c2.2,0,3.1,1.6,2,3.5L312.6,391.9z"/>
						<path fill="none" stroke="#FF8C36" stroke-width="1.3331" stroke-miterlimit="1" d="M312.6,391.9c-1.1,1.9-2.9,5-4,6.9
							l-2.8,4.8c-1.1,1.9-2.9,1.9-4,0l-2.8-4.8c-1.1-1.9-2.9-5-4-6.9l-2.8-4.8c-1.1-1.9-0.2-3.5,2-3.5l5.6,0c2.2,0,5.8,0,8,0l5.6,0
							c2.2,0,3.1,1.6,2,3.5L312.6,391.9z"/>
					</g>
					<g>
						<path fill="#FFD44A" d="M299,415.5c-1.1,1.9-2.9,5-4,6.9l-2.8,4.8c-1.1,1.9-2.9,1.9-4,0l-2.8-4.8c-1.1-1.9-2.9-5-4-6.9
							l-2.8-4.8c-1.1-1.9-0.2-3.5,2-3.5l5.6,0c2.2,0,5.8,0,8,0l5.6,0c2.2,0,3.1,1.6,2,3.5L299,415.5z"/>
						<path fill="none" stroke="#FF8C36" stroke-width="1.3331" stroke-miterlimit="1" d="M299,415.5c-1.1,1.9-2.9,5-4,6.9l-2.8,4.8
							c-1.1,1.9-2.9,1.9-4,0l-2.8-4.8c-1.1-1.9-2.9-5-4-6.9l-2.8-4.8c-1.1-1.9-0.2-3.5,2-3.5l5.6,0c2.2,0,5.8,0,8,0l5.6,0
							c2.2,0,3.1,1.6,2,3.5L299,415.5z"/>
					</g>
					<g>
						<path fill="#FFD44A" d="M326.2,368.4c-1.1,1.9-2.9,5-4,6.9l-2.8,4.8c-1.1,1.9-2.9,1.9-4,0l-2.8-4.8c-1.1-1.9-2.9-5-4-6.9
							l-2.8-4.8c-1.1-1.9-0.2-3.5,2-3.5l5.6,0c2.2,0,5.8,0,8,0l5.6,0c2.2,0,3.1,1.6,2,3.5L326.2,368.4z"/>
						<path fill="none" stroke="#FF8C36" stroke-width="1.3331" stroke-miterlimit="1" d="M326.2,368.4c-1.1,1.9-2.9,5-4,6.9
							l-2.8,4.8c-1.1,1.9-2.9,1.9-4,0l-2.8-4.8c-1.1-1.9-2.9-5-4-6.9l-2.8-4.8c-1.1-1.9-0.2-3.5,2-3.5l5.6,0c2.2,0,5.8,0,8,0l5.6,0
							c2.2,0,3.1,1.6,2,3.5L326.2,368.4z"/>
					</g>
					<g>
						<path fill="#FFD44A" d="M339.7,392c-1.1,1.9-2.9,5-4,6.9l-2.8,4.8c-1.1,1.9-2.9,1.9-4,0l-2.8-4.8c-1.1-1.9-2.9-5-4-6.9
							l-2.8-4.8c-1.1-1.9-0.2-3.5,2-3.5l5.6,0c2.2,0,5.8,0,8,0l5.6,0c2.2,0,3.1,1.6,2,3.5L339.7,392z"/>
						<path fill="none" stroke="#FF8C36" stroke-width="1.3331" stroke-miterlimit="1" d="M339.7,392c-1.1,1.9-2.9,5-4,6.9l-2.8,4.8
							c-1.1,1.9-2.9,1.9-4,0l-2.8-4.8c-1.1-1.9-2.9-5-4-6.9l-2.8-4.8c-1.1-1.9-0.2-3.5,2-3.5l5.6,0c2.2,0,5.8,0,8,0l5.6,0
							c2.2,0,3.1,1.6,2,3.5L339.7,392z"/>
					</g>
					<g>
						<path fill="#FFD44A" d="M335.7,398.9c1.1-1.9,2.9-5,4-6.9l2.8-4.8c1.1-1.9,2.9-1.9,4,0l2.8,4.8c1.1,1.9,2.9,5,4,6.9l2.8,4.8
							c1.1,1.9,0.2,3.5-2,3.5l-5.6,0c-2.2,0-5.8,0-8,0l-5.6,0c-2.2,0-3.1-1.6-2-3.5L335.7,398.9z"/>
						<path fill="none" stroke="#FF8C36" stroke-width="1.3331" stroke-miterlimit="1" d="M335.7,398.9c1.1-1.9,2.9-5,4-6.9l2.8-4.8
							c1.1-1.9,2.9-1.9,4,0l2.8,4.8c1.1,1.9,2.9,5,4,6.9l2.8,4.8c1.1,1.9,0.2,3.5-2,3.5l-5.6,0c-2.2,0-5.8,0-8,0l-5.6,0
							c-2.2,0-3.1-1.6-2-3.5L335.7,398.9z"/>
					</g>
					<g>
						<path fill="#FFD44A" d="M322.2,375.3c1.1-1.9,2.9-5,4-6.9l2.8-4.8c1.1-1.9,2.9-1.9,4,0l2.8,4.8c1.1,1.9,2.9,5,4,6.9l2.8,4.8
							c1.1,1.9,0.2,3.5-2,3.5l-5.6,0c-2.2,0-5.8,0-8,0l-5.6,0c-2.2,0-3.1-1.6-2-3.5L322.2,375.3z"/>
						<path fill="none" stroke="#FF8C36" stroke-width="1.3331" stroke-miterlimit="1" d="M322.2,375.3c1.1-1.9,2.9-5,4-6.9l2.8-4.8
							c1.1-1.9,2.9-1.9,4,0l2.8,4.8c1.1,1.9,2.9,5,4,6.9l2.8,4.8c1.1,1.9,0.2,3.5-2,3.5l-5.6,0c-2.2,0-5.8,0-8,0l-5.6,0
							c-2.2,0-3.1-1.6-2-3.5L322.2,375.3z"/>
					</g>
					<g>
						<path fill="#FFD44A" d="M326.1,415.5c-1.1,1.9-2.9,5-4,6.9l-2.8,4.8c-1.1,1.9-2.9,1.9-4,0l-2.8-4.8c-1.1-1.9-2.9-5-4-6.9
							l-2.8-4.8c-1.1-1.9-0.2-3.5,2-3.5l5.6,0c2.2,0,5.8,0,8,0l5.6,0c2.2,0,3.1,1.6,2,3.5L326.1,415.5z"/>
						<path fill="none" stroke="#FF8C36" stroke-width="1.3331" stroke-miterlimit="1" d="M326.1,415.5c-1.1,1.9-2.9,5-4,6.9
							l-2.8,4.8c-1.1,1.9-2.9,1.9-4,0l-2.8-4.8c-1.1-1.9-2.9-5-4-6.9l-2.8-4.8c-1.1-1.9-0.2-3.5,2-3.5l5.6,0c2.2,0,5.8,0,8,0l5.6,0
							c2.2,0,3.1,1.6,2,3.5L326.1,415.5z"/>
					</g>
					<g>
						<path fill="#FFD44A" d="M308.6,398.9c1.1-1.9,2.9-5,4-6.9l2.8-4.8c1.1-1.9,2.9-1.9,4,0l2.8,4.8c1.1,1.9,2.9,5,4,6.9l2.8,4.8
							c1.1,1.9,0.2,3.5-2,3.5l-5.6,0c-2.2,0-5.8,0-8,0l-5.6,0c-2.2,0-3.1-1.6-2-3.5L308.6,398.9z"/>
						<path fill="none" stroke="#FF8C36" stroke-width="1.3331" stroke-miterlimit="1" d="M308.6,398.9c1.1-1.9,2.9-5,4-6.9l2.8-4.8
							c1.1-1.9,2.9-1.9,4,0l2.8,4.8c1.1,1.9,2.9,5,4,6.9l2.8,4.8c1.1,1.9,0.2,3.5-2,3.5l-5.6,0c-2.2,0-5.8,0-8,0l-5.6,0
							c-2.2,0-3.1-1.6-2-3.5L308.6,398.9z"/>
					</g>
					<g>
						<path fill="#FFD44A" d="M267.8,375.3c1.1-1.9,2.9-5,4-6.9l2.8-4.8c1.1-1.9,2.9-1.9,4,0l2.8,4.8c1.1,1.9,2.9,5,4,6.9l2.8,4.8
							c1.1,1.9,0.2,3.5-2,3.5l-5.6,0c-2.2,0-5.8,0-8,0l-5.6,0c-2.2,0-3.1-1.6-2-3.5L267.8,375.3z"/>
						<path fill="none" stroke="#FF8C36" stroke-width="1.3331" stroke-miterlimit="1" d="M267.8,375.3c1.1-1.9,2.9-5,4-6.9l2.8-4.8
							c1.1-1.9,2.9-1.9,4,0l2.8,4.8c1.1,1.9,2.9,5,4,6.9l2.8,4.8c1.1,1.9,0.2,3.5-2,3.5l-5.6,0c-2.2,0-5.8,0-8,0l-5.6,0
							c-2.2,0-3.1-1.6-2-3.5L267.8,375.3z"/>
					</g>
					<g>
						<path fill="#FFD44A" d="M299,368.4c-1.1,1.9-2.9,5-4,6.9l-2.8,4.8c-1.1,1.9-2.9,1.9-4,0l-2.8-4.8c-1.1-1.9-2.9-5-4-6.9
							l-2.8-4.8c-1.1-1.9-0.2-3.5,2-3.5l5.6,0c2.2,0,5.8,0,8,0l5.6,0c2.2,0,3.1,1.6,2,3.5L299,368.4z"/>
						<path fill="none" stroke="#FF8C36" stroke-width="1.3331" stroke-miterlimit="1" d="M299,368.4c-1.1,1.9-2.9,5-4,6.9l-2.8,4.8
							c-1.1,1.9-2.9,1.9-4,0l-2.8-4.8c-1.1-1.9-2.9-5-4-6.9l-2.8-4.8c-1.1-1.9-0.2-3.5,2-3.5l5.6,0c2.2,0,5.8,0,8,0l5.6,0
							c2.2,0,3.1,1.6,2,3.5L299,368.4z"/>
					</g>
					<g>
						<path fill="#FFD44A" d="M285.4,391.9c-1.1,1.9-2.9,5-4,6.9l-2.8,4.8c-1.1,1.9-2.9,1.9-4,0l-2.8-4.8c-1.1-1.9-2.9-5-4-6.9
							l-2.8-4.8c-1.1-1.9-0.2-3.5,2-3.5l5.6,0c2.2,0,5.8,0,8,0l5.6,0c2.2,0,3.1,1.6,2,3.5L285.4,391.9z"/>
						<path fill="none" stroke="#FF8C36" stroke-width="1.3331" stroke-miterlimit="1" d="M285.4,391.9c-1.1,1.9-2.9,5-4,6.9
							l-2.8,4.8c-1.1,1.9-2.9,1.9-4,0l-2.8-4.8c-1.1-1.9-2.9-5-4-6.9l-2.8-4.8c-1.1-1.9-0.2-3.5,2-3.5l5.6,0c2.2,0,5.8,0,8,0l5.6,0
							c2.2,0,3.1,1.6,2,3.5L285.4,391.9z"/>
					</g>
					<g>
						<path fill="#FFD44A" d="M267.8,375.3c1.1-1.9,2.9-5,4-6.9l2.8-4.8c1.1-1.9,2.9-1.9,4,0l2.8,4.8c1.1,1.9,2.9,5,4,6.9l2.8,4.8
							c1.1,1.9,0.2,3.5-2,3.5l-5.6,0c-2.2,0-5.8,0-8,0l-5.6,0c-2.2,0-3.1-1.6-2-3.5L267.8,375.3z"/>
						<path fill="none" stroke="#FF8C36" stroke-width="1.3331" stroke-miterlimit="1" d="M267.8,375.3c1.1-1.9,2.9-5,4-6.9l2.8-4.8
							c1.1-1.9,2.9-1.9,4,0l2.8,4.8c1.1,1.9,2.9,5,4,6.9l2.8,4.8c1.1,1.9,0.2,3.5-2,3.5l-5.6,0c-2.2,0-5.8,0-8,0l-5.6,0
							c-2.2,0-3.1-1.6-2-3.5L267.8,375.3z"/>
					</g>
					<g>
						<path fill="#FFD44A" d="M322.1,422.4c1.1-1.9,2.9-5,4-6.9l2.8-4.8c1.1-1.9,2.9-1.9,4,0l2.8,4.8c1.1,1.9,2.9,5,4,6.9l2.8,4.8
							c1.1,1.9,0.2,3.5-2,3.5l-5.6,0c-2.2,0-5.8,0-8,0l-5.6,0c-2.2,0-3.1-1.6-2-3.5L322.1,422.4z"/>
						<path fill="none" stroke="#FF8C36" stroke-width="1.3331" stroke-miterlimit="1" d="M322.1,422.4c1.1-1.9,2.9-5,4-6.9l2.8-4.8
							c1.1-1.9,2.9-1.9,4,0l2.8,4.8c1.1,1.9,2.9,5,4,6.9l2.8,4.8c1.1,1.9,0.2,3.5-2,3.5l-5.6,0c-2.2,0-5.8,0-8,0l-5.6,0
							c-2.2,0-3.1-1.6-2-3.5L322.1,422.4z"/>
					</g>
					<g>
						<path fill="#FFD44A" d="M295,422.4c1.1-1.9,2.9-5,4-6.9l2.8-4.8c1.1-1.9,2.9-1.9,4,0l2.8,4.8c1.1,1.9,2.9,5,4,6.9l2.8,4.8
							c1.1,1.9,0.2,3.5-2,3.5l-5.6,0c-2.2,0-5.8,0-8,0l-5.6,0c-2.2,0-3.1-1.6-2-3.5L295,422.4z"/>
						<path fill="none" stroke="#FF8C36" stroke-width="1.3331" stroke-miterlimit="1" d="M295,422.4c1.1-1.9,2.9-5,4-6.9l2.8-4.8
							c1.1-1.9,2.9-1.9,4,0l2.8,4.8c1.1,1.9,2.9,5,4,6.9l2.8,4.8c1.1,1.9,0.2,3.5-2,3.5l-5.6,0c-2.2,0-5.8,0-8,0l-5.6,0
							c-2.2,0-3.1-1.6-2-3.5L295,422.4z"/>
					</g>
				</g>
			</g>
			<g>
				<g>
					<g>
						<path fill="#FFD44A" d="M101.6,269.9c-1.1,1.9-2.9,5-4,6.9l-2.8,4.8c-1.1,1.9-2.9,1.9-4,0l-2.8-4.8c-1.1-1.9-2.9-5-4-6.9
							l-2.8-4.8c-1.1-1.9-0.2-3.5,2-3.5l5.6,0c2.2,0,5.8,0,8,0l5.6,0c2.2,0,3.1,1.6,2,3.5L101.6,269.9z"/>
						<path fill="none" stroke="#FF8C36" stroke-width="1.3331" stroke-miterlimit="1" d="M101.6,269.9c-1.1,1.9-2.9,5-4,6.9
							l-2.8,4.8c-1.1,1.9-2.9,1.9-4,0l-2.8-4.8c-1.1-1.9-2.9-5-4-6.9l-2.8-4.8c-1.1-1.9-0.2-3.5,2-3.5l5.6,0c2.2,0,5.8,0,8,0l5.6,0
							c2.2,0,3.1,1.6,2,3.5L101.6,269.9z"/>
					</g>
					<g>
						<path fill="#FFD44A" d="M97.6,276.9c1.1-1.9,2.9-5,4-6.9l2.8-4.8c1.1-1.9,2.9-1.9,4,0l2.8,4.8c1.1,1.9,2.9,5,4,6.9l2.8,4.8
							c1.1,1.9,0.2,3.5-2,3.5l-5.6,0c-2.2,0-5.8,0-8,0l-5.6,0c-2.2,0-3.1-1.6-2-3.5L97.6,276.9z"/>
						<path fill="none" stroke="#FF8C36" stroke-width="1.3331" stroke-miterlimit="1" d="M97.6,276.9c1.1-1.9,2.9-5,4-6.9l2.8-4.8
							c1.1-1.9,2.9-1.9,4,0l2.8,4.8c1.1,1.9,2.9,5,4,6.9l2.8,4.8c1.1,1.9,0.2,3.5-2,3.5l-5.6,0c-2.2,0-5.8,0-8,0l-5.6,0
							c-2.2,0-3.1-1.6-2-3.5L97.6,276.9z"/>
					</g>
					<g>
						<path fill="#FFD44A" d="M142.3,293.5c-1.1,1.9-2.9,5-4,6.9l-2.8,4.8c-1.1,1.9-2.9,1.9-4,0l-2.8-4.8c-1.1-1.9-2.9-5-4-6.9
							l-2.8-4.8c-1.1-1.9-0.2-3.5,2-3.5l5.6,0c2.2,0,5.8,0,8,0l5.6,0c2.2,0,3.1,1.6,2,3.5L142.3,293.5z"/>
						<path fill="none" stroke="#FF8C36" stroke-width="1.3331" stroke-miterlimit="1" d="M142.3,293.5c-1.1,1.9-2.9,5-4,6.9
							l-2.8,4.8c-1.1,1.9-2.9,1.9-4,0l-2.8-4.8c-1.1-1.9-2.9-5-4-6.9l-2.8-4.8c-1.1-1.9-0.2-3.5,2-3.5l5.6,0c2.2,0,5.8,0,8,0l5.6,0
							c2.2,0,3.1,1.6,2,3.5L142.3,293.5z"/>
					</g>
					<g>
						<path fill="#FFD44A" d="M155.9,317c-1.1,1.9-2.9,5-4,6.9l-2.8,4.8c-1.1,1.9-2.9,1.9-4,0l-2.8-4.8c-1.1-1.9-2.9-5-4-6.9
							l-2.8-4.8c-1.1-1.9-0.2-3.5,2-3.5l5.6,0c2.2,0,5.8,0,8,0l5.6,0c2.2,0,3.1,1.6,2,3.5L155.9,317z"/>
						<path fill="none" stroke="#FF8C36" stroke-width="1.3331" stroke-miterlimit="1" d="M155.9,317c-1.1,1.9-2.9,5-4,6.9l-2.8,4.8
							c-1.1,1.9-2.9,1.9-4,0l-2.8-4.8c-1.1-1.9-2.9-5-4-6.9l-2.8-4.8c-1.1-1.9-0.2-3.5,2-3.5l5.6,0c2.2,0,5.8,0,8,0l5.6,0
							c2.2,0,3.1,1.6,2,3.5L155.9,317z"/>
					</g>
					<g>
						<path fill="#FFD44A" d="M169.5,293.5c-1.1,1.9-2.9,5-4,6.9l-2.8,4.8c-1.1,1.9-2.9,1.9-4,0l-2.8-4.8c-1.1-1.9-2.9-5-4-6.9
							l-2.8-4.8c-1.1-1.9-0.2-3.5,2-3.5l5.6,0c2.2,0,5.8,0,8,0l5.6,0c2.2,0,3.1,1.6,2,3.5L169.5,293.5z"/>
						<path fill="none" stroke="#FF8C36" stroke-width="1.3331" stroke-miterlimit="1" d="M169.5,293.5c-1.1,1.9-2.9,5-4,6.9
							l-2.8,4.8c-1.1,1.9-2.9,1.9-4,0l-2.8-4.8c-1.1-1.9-2.9-5-4-6.9l-2.8-4.8c-1.1-1.9-0.2-3.5,2-3.5l5.6,0c2.2,0,5.8,0,8,0l5.6,0
							c2.2,0,3.1,1.6,2,3.5L169.5,293.5z"/>
					</g>
					<g>
						<path fill="#FFD44A" d="M138.3,300.4c1.1-1.9,2.9-5,4-6.9l2.8-4.8c1.1-1.9,2.9-1.9,4,0l2.8,4.8c1.1,1.9,2.9,5,4,6.9l2.8,4.8
							c1.1,1.9,0.2,3.5-2,3.5l-5.6,0c-2.2,0-5.8,0-8,0l-5.6,0c-2.2,0-3.1-1.6-2-3.5L138.3,300.4z"/>
						<path fill="none" stroke="#FF8C36" stroke-width="1.3331" stroke-miterlimit="1" d="M138.3,300.4c1.1-1.9,2.9-5,4-6.9l2.8-4.8
							c1.1-1.9,2.9-1.9,4,0l2.8,4.8c1.1,1.9,2.9,5,4,6.9l2.8,4.8c1.1,1.9,0.2,3.5-2,3.5l-5.6,0c-2.2,0-5.8,0-8,0l-5.6,0
							c-2.2,0-3.1-1.6-2-3.5L138.3,300.4z"/>
					</g>
					<g>
						<path fill="#FFD44A" d="M151.9,276.9c1.1-1.9,2.9-5,4-6.9l2.8-4.8c1.1-1.9,2.9-1.9,4,0l2.8,4.8c1.1,1.9,2.9,5,4,6.9l2.8,4.8
							c1.1,1.9,0.2,3.5-2,3.5l-5.6,0c-2.2,0-5.8,0-8,0l-5.6,0c-2.2,0-3.1-1.6-2-3.5L151.9,276.9z"/>
						<path fill="none" stroke="#FF8C36" stroke-width="1.3331" stroke-miterlimit="1" d="M151.9,276.9c1.1-1.9,2.9-5,4-6.9l2.8-4.8
							c1.1-1.9,2.9-1.9,4,0l2.8,4.8c1.1,1.9,2.9,5,4,6.9l2.8,4.8c1.1,1.9,0.2,3.5-2,3.5l-5.6,0c-2.2,0-5.8,0-8,0l-5.6,0
							c-2.2,0-3.1-1.6-2-3.5L151.9,276.9z"/>
					</g>
					<g>
						<path fill="#FFD44A" d="M124.7,324c1.1-1.9,2.9-5,4-6.9l2.8-4.8c1.1-1.9,2.9-1.9,4,0l2.8,4.8c1.1,1.9,2.9,5,4,6.9l2.8,4.8
							c1.1,1.9,0.2,3.5-2,3.5l-5.6,0c-2.2,0-5.8,0-8,0l-5.6,0c-2.2,0-3.1-1.6-2-3.5L124.7,324z"/>
						<path fill="none" stroke="#FF8C36" stroke-width="1.3331" stroke-miterlimit="1" d="M124.7,324c1.1-1.9,2.9-5,4-6.9l2.8-4.8
							c1.1-1.9,2.9-1.9,4,0l2.8,4.8c1.1,1.9,2.9,5,4,6.9l2.8,4.8c1.1,1.9,0.2,3.5-2,3.5l-5.6,0c-2.2,0-5.8,0-8,0l-5.6,0
							c-2.2,0-3.1-1.6-2-3.5L124.7,324z"/>
					</g>
					<g>
						<path fill="#FFD44A" d="M111.1,300.4c1.1-1.9,2.9-5,4-6.9l2.8-4.8c1.1-1.9,2.9-1.9,4,0l2.8,4.8c1.1,1.9,2.9,5,4,6.9l2.8,4.8
							c1.1,1.9,0.2,3.5-2,3.5l-5.6,0c-2.2,0-5.8,0-8,0l-5.6,0c-2.2,0-3.1-1.6-2-3.5L111.1,300.4z"/>
						<path fill="none" stroke="#FF8C36" stroke-width="1.3331" stroke-miterlimit="1" d="M111.1,300.4c1.1-1.9,2.9-5,4-6.9l2.8-4.8
							c1.1-1.9,2.9-1.9,4,0l2.8,4.8c1.1,1.9,2.9,5,4,6.9l2.8,4.8c1.1,1.9,0.2,3.5-2,3.5l-5.6,0c-2.2,0-5.8,0-8,0l-5.6,0
							c-2.2,0-3.1-1.6-2-3.5L111.1,300.4z"/>
					</g>
					<g>
						<path fill="#FFD44A" d="M115.1,293.5c-1.1,1.9-2.9,5-4,6.9l-2.8,4.8c-1.1,1.9-2.9,1.9-4,0l-2.8-4.8c-1.1-1.9-2.9-5-4-6.9
							l-2.8-4.8c-1.1-1.9-0.2-3.5,2-3.5l5.6,0c2.2,0,5.8,0,8,0l5.6,0c2.2,0,3.1,1.6,2,3.5L115.1,293.5z"/>
						<path fill="none" stroke="#FF8C36" stroke-width="1.3331" stroke-miterlimit="1" d="M115.1,293.5c-1.1,1.9-2.9,5-4,6.9
							l-2.8,4.8c-1.1,1.9-2.9,1.9-4,0l-2.8-4.8c-1.1-1.9-2.9-5-4-6.9l-2.8-4.8c-1.1-1.9-0.2-3.5,2-3.5l5.6,0c2.2,0,5.8,0,8,0l5.6,0
							c2.2,0,3.1,1.6,2,3.5L115.1,293.5z"/>
					</g>
					<g>
						<path fill="#FFD44A" d="M128.7,317c-1.1,1.9-2.9,5-4,6.9l-2.8,4.8c-1.1,1.9-2.9,1.9-4,0l-2.8-4.8c-1.1-1.9-2.9-5-4-6.9
							l-2.8-4.8c-1.1-1.9-0.2-3.5,2-3.5l5.6,0c2.2,0,5.8,0,8,0l5.6,0c2.2,0,3.1,1.6,2,3.5L128.7,317z"/>
						<path fill="none" stroke="#FF8C36" stroke-width="1.3331" stroke-miterlimit="1" d="M128.7,317c-1.1,1.9-2.9,5-4,6.9l-2.8,4.8
							c-1.1,1.9-2.9,1.9-4,0l-2.8-4.8c-1.1-1.9-2.9-5-4-6.9l-2.8-4.8c-1.1-1.9-0.2-3.5,2-3.5l5.6,0c2.2,0,5.8,0,8,0l5.6,0
							c2.2,0,3.1,1.6,2,3.5L128.7,317z"/>
					</g>
					<g>
						<path fill="#FFD44A" d="M124.7,276.9c1.1-1.9,2.9-5,4-6.9l2.8-4.8c1.1-1.9,2.9-1.9,4,0l2.8,4.8c1.1,1.9,2.9,5,4,6.9l2.8,4.8
							c1.1,1.9,0.2,3.5-2,3.5l-5.6,0c-2.2,0-5.8,0-8,0l-5.6,0c-2.2,0-3.1-1.6-2-3.5L124.7,276.9z"/>
						<path fill="none" stroke="#FF8C36" stroke-width="1.3331" stroke-miterlimit="1" d="M124.7,276.9c1.1-1.9,2.9-5,4-6.9l2.8-4.8
							c1.1-1.9,2.9-1.9,4,0l2.8,4.8c1.1,1.9,2.9,5,4,6.9l2.8,4.8c1.1,1.9,0.2,3.5-2,3.5l-5.6,0c-2.2,0-5.8,0-8,0l-5.6,0
							c-2.2,0-3.1-1.6-2-3.5L124.7,276.9z"/>
					</g>
					<g>
						<path fill="#FFD44A" d="M142.3,293.5c-1.1,1.9-2.9,5-4,6.9l-2.8,4.8c-1.1,1.9-2.9,1.9-4,0l-2.8-4.8c-1.1-1.9-2.9-5-4-6.9
							l-2.8-4.8c-1.1-1.9-0.2-3.5,2-3.5l5.6,0c2.2,0,5.8,0,8,0l5.6,0c2.2,0,3.1,1.6,2,3.5L142.3,293.5z"/>
						<path fill="none" stroke="#FF8C36" stroke-width="1.3331" stroke-miterlimit="1" d="M142.3,293.5c-1.1,1.9-2.9,5-4,6.9
							l-2.8,4.8c-1.1,1.9-2.9,1.9-4,0l-2.8-4.8c-1.1-1.9-2.9-5-4-6.9l-2.8-4.8c-1.1-1.9-0.2-3.5,2-3.5l5.6,0c2.2,0,5.8,0,8,0l5.6,0
							c2.2,0,3.1,1.6,2,3.5L142.3,293.5z"/>
					</g>
					<g>
						<path fill="#FFD44A" d="M183.1,317.1c-1.1,1.9-2.9,5-4,6.9l-2.8,4.8c-1.1,1.9-2.9,1.9-4,0l-2.8-4.8c-1.1-1.9-2.9-5-4-6.9
							l-2.8-4.8c-1.1-1.9-0.2-3.5,2-3.5l5.6,0c2.2,0,5.8,0,8,0l5.6,0c2.2,0,3.1,1.6,2,3.5L183.1,317.1z"/>
						<path fill="none" stroke="#FF8C36" stroke-width="1.3331" stroke-miterlimit="1" d="M183.1,317.1c-1.1,1.9-2.9,5-4,6.9
							l-2.8,4.8c-1.1,1.9-2.9,1.9-4,0l-2.8-4.8c-1.1-1.9-2.9-5-4-6.9l-2.8-4.8c-1.1-1.9-0.2-3.5,2-3.5l5.6,0c2.2,0,5.8,0,8,0l5.6,0
							c2.2,0,3.1,1.6,2,3.5L183.1,317.1z"/>
					</g>
					<g>
						<path fill="#FFD44A" d="M151.9,324c1.1-1.9,2.9-5,4-6.9l2.8-4.8c1.1-1.9,2.9-1.9,4,0l2.8,4.8c1.1,1.9,2.9,5,4,6.9l2.8,4.8
							c1.1,1.9,0.2,3.5-2,3.5l-5.6,0c-2.2,0-5.8,0-8,0l-5.6,0c-2.2,0-3.1-1.6-2-3.5L151.9,324z"/>
						<path fill="none" stroke="#FF8C36" stroke-width="1.3331" stroke-miterlimit="1" d="M151.9,324c1.1-1.9,2.9-5,4-6.9l2.8-4.8
							c1.1-1.9,2.9-1.9,4,0l2.8,4.8c1.1,1.9,2.9,5,4,6.9l2.8,4.8c1.1,1.9,0.2,3.5-2,3.5l-5.6,0c-2.2,0-5.8,0-8,0l-5.6,0
							c-2.2,0-3.1-1.6-2-3.5L151.9,324z"/>
					</g>
					<g>
						<path fill="#FFD44A" d="M165.5,300.4c1.1-1.9,2.9-5,4-6.9l2.8-4.8c1.1-1.9,2.9-1.9,4,0l2.8,4.8c1.1,1.9,2.9,5,4,6.9l2.8,4.8
							c1.1,1.9,0.2,3.5-2,3.5l-5.6,0c-2.2,0-5.8,0-8,0l-5.6,0c-2.2,0-3.1-1.6-2-3.5L165.5,300.4z"/>
						<path fill="none" stroke="#FF8C36" stroke-width="1.3331" stroke-miterlimit="1" d="M165.5,300.4c1.1-1.9,2.9-5,4-6.9l2.8-4.8
							c1.1-1.9,2.9-1.9,4,0l2.8,4.8c1.1,1.9,2.9,5,4,6.9l2.8,4.8c1.1,1.9,0.2,3.5-2,3.5l-5.6,0c-2.2,0-5.8,0-8,0l-5.6,0
							c-2.2,0-3.1-1.6-2-3.5L165.5,300.4z"/>
					</g>
					<g>
						<path fill="#FFD44A" d="M183.1,317.1c-1.1,1.9-2.9,5-4,6.9l-2.8,4.8c-1.1,1.9-2.9,1.9-4,0l-2.8-4.8c-1.1-1.9-2.9-5-4-6.9
							l-2.8-4.8c-1.1-1.9-0.2-3.5,2-3.5l5.6,0c2.2,0,5.8,0,8,0l5.6,0c2.2,0,3.1,1.6,2,3.5L183.1,317.1z"/>
						<path fill="none" stroke="#FF8C36" stroke-width="1.3331" stroke-miterlimit="1" d="M183.1,317.1c-1.1,1.9-2.9,5-4,6.9
							l-2.8,4.8c-1.1,1.9-2.9,1.9-4,0l-2.8-4.8c-1.1-1.9-2.9-5-4-6.9l-2.8-4.8c-1.1-1.9-0.2-3.5,2-3.5l5.6,0c2.2,0,5.8,0,8,0l5.6,0
							c2.2,0,3.1,1.6,2,3.5L183.1,317.1z"/>
					</g>
					<g>
						<path fill="#FFD44A" d="M128.8,269.9c-1.1,1.9-2.9,5-4,6.9l-2.8,4.8c-1.1,1.9-2.9,1.9-4,0l-2.8-4.8c-1.1-1.9-2.9-5-4-6.9
							l-2.8-4.8c-1.1-1.9-0.2-3.5,2-3.5l5.6,0c2.2,0,5.8,0,8,0l5.6,0c2.2,0,3.1,1.6,2,3.5L128.8,269.9z"/>
						<path fill="none" stroke="#FF8C36" stroke-width="1.3331" stroke-miterlimit="1" d="M128.8,269.9c-1.1,1.9-2.9,5-4,6.9
							l-2.8,4.8c-1.1,1.9-2.9,1.9-4,0l-2.8-4.8c-1.1-1.9-2.9-5-4-6.9l-2.8-4.8c-1.1-1.9-0.2-3.5,2-3.5l5.6,0c2.2,0,5.8,0,8,0l5.6,0
							c2.2,0,3.1,1.6,2,3.5L128.8,269.9z"/>
					</g>
					<g>
						<path fill="#FFD44A" d="M155.9,270c-1.1,1.9-2.9,5-4,6.9l-2.8,4.8c-1.1,1.9-2.9,1.9-4,0l-2.8-4.8c-1.1-1.9-2.9-5-4-6.9
							l-2.8-4.8c-1.1-1.9-0.2-3.5,2-3.5l5.6,0c2.2,0,5.8,0,8,0l5.6,0c2.2,0,3.1,1.6,2,3.5L155.9,270z"/>
						<path fill="none" stroke="#FF8C36" stroke-width="1.3331" stroke-miterlimit="1" d="M155.9,270c-1.1,1.9-2.9,5-4,6.9l-2.8,4.8
							c-1.1,1.9-2.9,1.9-4,0l-2.8-4.8c-1.1-1.9-2.9-5-4-6.9l-2.8-4.8c-1.1-1.9-0.2-3.5,2-3.5l5.6,0c2.2,0,5.8,0,8,0l5.6,0
							c2.2,0,3.1,1.6,2,3.5L155.9,270z"/>
					</g>
				</g>
			</g>
		</g>
		<g>
			<circle fill="#2E2222" cx="225.5" cy="345.9" r="40.5"/>
			<g id="Tesla">
				<path fill="#FFFFFF" d="M225.5,366.8l4.7-26.3c4.5,0,5.9,0.5,6.1,2.5c0,0,3-1.1,4.5-3.4c-5.9-2.7-11.8-2.9-11.8-2.9l-3.5,4.2
					l0,0l-3.5-4.2c0,0-5.9,0.1-11.8,2.9c1.5,2.3,4.5,3.4,4.5,3.4c0.2-2,1.6-2.5,6-2.5L225.5,366.8z"/>
				<path fill="#FFFFFF" d="M225.5,335.5c4.8,0,10.2,0.7,15.8,3.2c0.7-1.3,0.9-1.9,0.9-1.9c-6.1-2.4-11.8-3.2-16.7-3.3
					c-4.9,0-10.6,0.8-16.7,3.3c0,0,0.3,0.7,0.9,1.9C215.2,336.2,220.7,335.5,225.5,335.5L225.5,335.5z"/>
			</g>
		</g>
	</g>
</g>
<g id="Layer_2">
</g>
</svg>
