<svg xmlns="http://www.w3.org/2000/svg" viewBox="0 0 109.28364 225.78795"><defs><style>.a0eeb97b-f469-4dce-8259-bbae36d3e354{fill:none;stroke:#be4646;stroke-miterlimit:10;}</style></defs><title>power</title><g id="f0bfcfdf-7656-41f7-8447-96643be138eb" data-name="Layer 2"><g id="b6f29bb9-175f-432b-95c0-b895487b365d" data-name="Layer 1"><path class="a0eeb97b-f469-4dce-8259-bbae36d3e354" d="M78.06754.168A153.06231,153.06231,0,0,1,86.4338,38.89085c.68447,8.245.53166,17.13235-4.11582,23.977-6.00305,8.84107-17.45766,11.62983-27.29782,15.79784A80.86981,80.86981,0,0,0,27.41652,98.01589c-3.46286,3.72713-6.72906,8.22349-6.65478,13.31046.10963,7.50877,7.37236,12.93456,14.47794,15.36443,15.67718,5.361,33.904,2.38419,48.23924,10.69169,10.42931,6.04393,16.93662,17.121,21.29155,28.36086,3.53017,9.11121,5.90664,19.52834,1.98891,28.47975-3.88978,8.88755-12.96708,14.151-21.47552,18.81208-10.70823,5.86616-23.12013,11.90133-34.61527,7.78554-6.51706-2.33341-11.58545-7.64227-17.98276-10.2864-12.32792-5.09539-28.24325,2.36854-32.20843,15.105"/></g></g></svg>