<?xml version="1.0" encoding="utf-8"?>
<!-- Generator: Adobe Illustrator 24.0.1, SVG Export Plug-In . SVG Version: 6.00 Build 0)  -->
<svg version="1.1" id="Layer_1" xmlns="http://www.w3.org/2000/svg" xmlns:xlink="http://www.w3.org/1999/xlink" x="0px" y="0px"
	 viewBox="0 0 320 568" style="enable-background:new 0 0 320 568;" xml:space="preserve">
<style type="text/css">
	.st0{fill:none;stroke:#BE4646;stroke-width:3;stroke-miterlimit:10;}
	.st1{fill:#FFDB00;}
	.st2{enable-background:new    ;}
	.st3{clip-path:url(#SVGID_2_);enable-background:new    ;}
	.st4{fill:#00925A;}
	.st5{fill:#009059;}
	.st6{fill:#008D58;}
	.st7{fill:#008A57;}
	.st8{fill:#008856;}
	.st9{fill:#008556;}
	.st10{fill:#008255;}
	.st11{fill:#007F54;}
	.st12{fill:#007D53;}
	.st13{fill:#007A52;}
	.st14{fill:#007752;}
	.st15{clip-path:url(#SVGID_2_);}
	.st16{fill:#3F3025;}
	.st17{clip-path:url(#SVGID_4_);enable-background:new    ;}
	.st18{fill:#007551;}
	.st19{fill:#007250;}
	.st20{fill:#006F4F;}
	.st21{fill:#006D4E;}
	.st22{fill:#006A4E;}
	.st23{fill:#00674D;}
	.st24{clip-path:url(#SVGID_4_);}
	.st25{clip-path:url(#SVGID_6_);enable-background:new    ;}
	.st26{fill:#00955A;}
	.st27{clip-path:url(#SVGID_6_);}
	.st28{clip-path:url(#SVGID_8_);enable-background:new    ;}
	.st29{clip-path:url(#SVGID_8_);}
	.st30{fill:#007C53;}
	.st31{clip-path:url(#SVGID_10_);enable-background:new    ;}
	.st32{fill:#1FB273;}
	.st33{fill:#00A860;}
	.st34{fill:#00A55F;}
	.st35{fill:#00A35E;}
	.st36{fill:#00A05E;}
	.st37{fill:#009D5D;}
	.st38{fill:#009B5C;}
	.st39{fill:#00985B;}
	.st40{fill:#2BB77B;}
	.st41{fill:#35BA81;}
	.st42{fill:#3DBD86;}
	.st43{fill:#44BF8B;}
	.st44{fill:#4BC28F;}
	.st45{fill:#51C492;}
	.st46{fill:#57C696;}
	.st47{fill:#5CC799;}
	.st48{fill:#61C99C;}
	.st49{fill:#65CB9F;}
	.st50{fill:#6ACCA2;}
	.st51{fill:none;stroke:#136DD4;stroke-miterlimit:10;}
	.st52{fill:none;stroke:#BE4646;stroke-miterlimit:10;}
	.st53{fill:none;stroke:#8EDA8E;stroke-miterlimit:10;}
	.st54{fill:#136DD4;}
	.st55{fill:#016B01;}
	.st56{fill:#2E2222;}
	.st57{fill:none;stroke:#2E2222;stroke-miterlimit:10;}
	.st58{fill:#BE4646;}
	.st59{fill:#056DD4;}
	.st60{fill:#8EDA8E;}
	.st61{fill:none;stroke:#056DD4;stroke-miterlimit:10;}
	.st62{fill:#86BFEE;}
	.st63{fill:none;stroke:#016B01;stroke-miterlimit:10;}
	.st64{fill:none;stroke:#86BFEE;stroke-miterlimit:10;}
	.st65{fill:#2E2222;stroke:#056DD4;stroke-width:3;stroke-miterlimit:10;}
	.st66{fill:#2E2222;stroke:#BE4646;stroke-width:3;stroke-miterlimit:10;}
	.st67{fill:#2E2222;stroke:#8EDA8E;stroke-width:3;stroke-miterlimit:10;}
	.st68{fill:none;}
	.st69{fill:none;stroke:#056DD4;stroke-width:3;stroke-linecap:round;stroke-miterlimit:10;}
	.st70{fill:none;stroke:#BE4646;stroke-width:3;stroke-linecap:round;stroke-miterlimit:10;}
	.st71{fill:none;stroke:#8EDA8E;stroke-width:3;stroke-linecap:round;stroke-miterlimit:10;}
</style>
<path id="power_stem" class="st0" d="M210.6,112.2c21.2-2.5,28.6-8.9,31.1-14.9c2.1-4.9,0.6-9.2,4-13.8c4.5-6.2,13.7-7.4,21.1-7.3"
	/>
<rect id="seed" x="117.6" y="95.6" class="st55" width="96" height="32"/>
<circle id="water_port" class="st65" cx="135.6" cy="111.6" r="7.3"/>
<circle id="power_port" class="st66" cx="165.6" cy="111.6" r="7.1"/>
<circle id="chlora_port" class="st67" cx="195.6" cy="111.6" r="7.3"/>
<rect x="128.6" y="95.8" class="st68" width="74" height="32"/>
<path id="water" class="st69" d="M135.1,111.8c-1.6,0.9-20.9,13-22,36c-0.9,18.8,20.5,22.1,25,42c7.2,31.6-34.9,57.1-25,76
	c6.5,12.5,26.9,5.1,38,21c9,13-28.4,45.1-34,56c-7.9,15.3-3.9,28.4-10.8,39.9c-8.7,14.7-20.5,10.1-28.2,19.1
	c-21.4,24.8,30.7,76.6,1,104c-13,12-8,41-55,26"/>
<path id="power" class="st70" d="M166.1,111.8c-10.8,17.5-21.7,41.8-13,62c8.6,19.8,29.9,21.4,32,38c1.9,15.8-16.4,20.6-35,53
	c-8.1,14.2-19.5,34-17,57c2.2,20.8,13.8,26.9,24,49c8.8,19,21.9,51.2,9,78c-11.5,23.9-45,21.7-45,34c0,13.3,36.8,15.4,44,37
	c5,15.1-6.6,33.1-20,48"/>
<path id="chlora" class="st71" d="M195.1,111.8c3.4,8.6,7.7,23.2,5,40c-5.9,37-39.9,48.2-42,76c-1.6,20.8,38.2,14.9,56,46
	c20.8,36.4-33.1,32.2-18,56c5.7,9,50.7,27.1,48,40c-5,24-41.8,48.1-34,60c14.6,22.1,22.8,19.1,32,48c5.2,16.2-1.1,13.9,11,39
	c6,12.5,8.1,24.2,9,32"/>
</svg>
